<svg id="svg" version="1.1" xmlns="http://www.w3.org/2000/svg" xmlns:xlink="http://www.w3.org/1999/xlink" width="400" height="96.2671905697446" viewBox="0, 0, 400,96.2671905697446"><g id="svgg"><path id="path0" d="M281.361 22.872 C 281.236 22.997,280.672 23.079,279.914 23.080 C 279.077 23.082,278.646 23.151,278.591 23.292 C 278.540 23.423,278.175 23.500,277.602 23.500 C 277.103 23.500,276.669 23.568,276.639 23.651 C 276.608 23.735,276.296 23.848,275.945 23.903 C 275.594 23.957,275.168 24.077,274.998 24.168 C 274.828 24.259,274.501 24.333,274.271 24.333 C 274.041 24.333,273.807 24.408,273.750 24.500 C 273.693 24.592,273.513 24.667,273.349 24.667 C 273.077 24.667,272.363 24.948,271.627 25.344 C 271.468 25.430,271.224 25.500,271.086 25.500 C 270.947 25.500,270.833 25.575,270.833 25.667 C 270.833 25.758,270.693 25.833,270.520 25.833 C 270.348 25.833,270.127 25.930,270.028 26.049 C 269.930 26.168,269.583 26.369,269.258 26.497 C 268.933 26.624,268.667 26.790,268.667 26.864 C 268.667 26.939,268.595 27.000,268.508 27.000 C 267.938 27.000,264.418 30.020,263.581 31.227 C 263.399 31.489,263.156 31.802,263.042 31.923 C 262.927 32.044,262.833 32.223,262.833 32.321 C 262.833 32.420,262.767 32.500,262.686 32.500 C 262.605 32.500,262.489 32.631,262.429 32.792 C 262.222 33.339,261.921 33.833,261.794 33.833 C 261.724 33.833,261.667 33.979,261.667 34.157 C 261.667 34.335,261.597 34.523,261.513 34.575 C 261.428 34.628,261.310 34.895,261.250 35.169 C 261.189 35.443,261.071 35.667,260.987 35.667 C 260.902 35.667,260.833 35.892,260.833 36.167 C 260.833 36.442,260.758 36.667,260.667 36.667 C 260.575 36.667,260.500 36.845,260.500 37.063 C 260.500 37.281,260.387 37.729,260.250 38.058 C 260.112 38.387,260.000 38.879,260.000 39.151 C 260.000 39.424,259.925 39.693,259.833 39.750 C 259.742 39.807,259.664 40.542,259.661 41.385 C 259.657 42.398,259.574 43.058,259.417 43.333 C 259.099 43.889,259.099 45.123,259.417 45.440 C 259.606 45.630,259.667 46.102,259.667 47.395 C 259.667 48.333,259.743 49.176,259.835 49.269 C 259.928 49.361,260.029 49.735,260.060 50.099 C 260.091 50.463,260.203 50.922,260.308 51.120 C 260.414 51.317,260.500 51.666,260.500 51.896 C 260.500 52.126,260.575 52.360,260.667 52.417 C 260.758 52.473,260.833 52.740,260.833 53.010 C 260.833 53.279,260.908 53.500,261.000 53.500 C 261.092 53.500,261.167 53.586,261.167 53.692 C 261.167 54.473,263.498 58.042,264.732 59.151 C 264.997 59.389,265.435 59.791,265.706 60.044 C 266.148 60.459,267.718 61.592,268.583 62.120 C 269.257 62.532,271.063 63.333,271.317 63.333 C 271.418 63.333,271.500 63.408,271.500 63.500 C 271.500 63.592,271.688 63.667,271.917 63.667 C 272.146 63.667,272.333 63.742,272.333 63.833 C 272.333 63.925,272.587 64.000,272.896 64.000 C 273.206 64.000,273.553 64.112,273.667 64.250 C 273.781 64.387,274.123 64.500,274.427 64.500 C 274.731 64.500,275.027 64.575,275.083 64.667 C 275.140 64.758,275.519 64.833,275.927 64.833 C 276.334 64.833,276.667 64.908,276.667 65.000 C 276.667 65.092,277.098 65.167,277.625 65.168 C 278.152 65.168,278.771 65.265,279.000 65.383 C 279.244 65.508,280.140 65.612,281.158 65.634 C 282.326 65.659,282.942 65.739,283.028 65.877 C 283.199 66.151,289.614 66.129,290.130 65.853 C 290.325 65.749,291.351 65.657,292.448 65.647 C 293.562 65.636,294.512 65.550,294.637 65.450 C 294.758 65.352,295.491 65.239,296.265 65.198 C 297.040 65.158,297.714 65.059,297.763 64.979 C 297.813 64.899,298.036 64.833,298.260 64.833 L 298.667 64.833 298.655 54.958 C 298.649 49.527,298.592 44.957,298.530 44.803 C 298.427 44.548,297.905 44.523,292.689 44.531 C 289.539 44.536,287.049 44.594,287.156 44.660 C 287.295 44.746,287.277 44.839,287.091 44.993 C 286.869 45.178,286.833 45.921,286.833 50.437 L 286.833 55.667 285.000 55.667 C 283.889 55.667,283.167 55.601,283.167 55.500 C 283.167 55.407,282.719 55.333,282.156 55.333 C 281.600 55.333,280.981 55.246,280.781 55.139 C 280.581 55.032,280.204 54.928,279.944 54.907 C 279.683 54.886,279.387 54.787,279.285 54.685 C 279.183 54.583,278.927 54.500,278.717 54.500 C 278.506 54.500,278.333 54.425,278.333 54.333 C 278.333 54.242,278.232 54.167,278.108 54.167 C 277.375 54.167,274.333 51.366,274.333 50.692 C 274.333 50.602,274.277 50.503,274.208 50.472 C 273.987 50.374,273.500 49.318,273.500 48.936 C 273.500 48.733,273.432 48.495,273.349 48.408 C 272.846 47.883,272.846 41.115,273.348 40.592 C 273.432 40.505,273.500 40.290,273.500 40.114 C 273.500 39.526,274.818 37.353,275.747 36.411 C 276.471 35.675,279.123 34.167,279.691 34.167 C 279.850 34.167,280.027 34.092,280.083 34.000 C 280.140 33.908,280.429 33.833,280.727 33.833 C 281.024 33.833,281.357 33.743,281.466 33.634 C 281.576 33.524,282.098 33.420,282.625 33.403 C 283.152 33.386,283.794 33.288,284.053 33.186 C 284.748 32.911,293.070 32.931,293.363 33.208 C 293.488 33.326,294.073 33.428,294.714 33.443 C 295.336 33.457,295.951 33.557,296.080 33.664 C 296.209 33.771,296.488 33.834,296.699 33.804 L 297.083 33.750 297.083 28.667 L 297.083 23.583 296.667 23.528 C 296.438 23.497,296.179 23.403,296.092 23.319 C 296.005 23.235,295.442 23.166,294.842 23.166 C 294.199 23.165,293.553 23.062,293.273 22.916 C 292.632 22.581,281.692 22.541,281.361 22.872 M181.541 44.208 L 181.583 65.250 187.167 65.297 C 190.237 65.322,192.919 65.302,193.125 65.252 L 193.500 65.160 193.500 52.997 C 193.500 40.191,193.514 39.967,194.208 41.476 C 194.369 41.824,194.500 42.197,194.500 42.305 C 194.500 42.412,194.575 42.500,194.667 42.500 C 194.758 42.500,194.833 42.688,194.833 42.917 C 194.833 43.146,194.894 43.333,194.968 43.333 C 195.042 43.333,195.234 43.652,195.394 44.042 C 195.555 44.431,195.757 44.880,195.843 45.039 C 195.929 45.199,196.000 45.436,196.000 45.567 C 196.000 45.698,196.056 45.831,196.125 45.861 C 196.194 45.892,196.390 46.217,196.560 46.583 C 196.731 46.950,196.937 47.380,197.018 47.539 C 197.100 47.699,197.167 47.910,197.167 48.010 C 197.167 48.109,197.279 48.303,197.417 48.440 C 197.554 48.578,197.667 48.831,197.667 49.002 C 197.667 49.173,197.742 49.360,197.833 49.417 C 197.925 49.473,198.000 49.665,198.000 49.843 C 198.000 50.021,198.075 50.167,198.167 50.167 C 198.258 50.167,198.333 50.307,198.333 50.480 C 198.333 50.652,198.446 50.886,198.583 51.000 C 198.721 51.114,198.833 51.348,198.833 51.520 C 198.833 51.693,198.908 51.833,199.000 51.833 C 199.092 51.833,199.167 52.021,199.167 52.250 C 199.167 52.479,199.242 52.667,199.333 52.667 C 199.425 52.667,199.500 52.759,199.500 52.873 C 199.500 53.064,200.182 54.599,200.519 55.167 C 200.601 55.304,200.747 55.603,200.844 55.831 C 201.240 56.756,201.557 57.455,201.904 58.167 L 202.270 58.917 207.531 58.961 L 212.792 59.005 213.055 58.603 C 213.200 58.382,213.367 58.006,213.427 57.767 C 213.487 57.529,213.603 57.333,213.685 57.333 C 213.766 57.333,213.833 57.146,213.833 56.917 C 213.833 56.688,213.908 56.500,214.000 56.500 C 214.092 56.500,214.167 56.364,214.167 56.199 C 214.167 56.033,214.277 55.751,214.411 55.574 C 214.546 55.396,214.658 55.119,214.661 54.958 C 214.664 54.798,214.742 54.667,214.833 54.667 C 214.925 54.667,215.000 54.479,215.000 54.250 C 215.000 54.021,215.075 53.833,215.167 53.833 C 215.258 53.833,215.333 53.714,215.333 53.567 C 215.333 53.421,215.437 53.102,215.563 52.859 C 215.689 52.616,215.886 52.192,215.999 51.917 C 216.113 51.642,216.272 51.286,216.353 51.127 C 216.434 50.968,216.500 50.734,216.500 50.606 C 216.500 50.478,216.612 50.281,216.750 50.167 C 216.887 50.053,217.000 49.781,217.000 49.563 C 217.000 49.345,217.075 49.167,217.167 49.167 C 217.258 49.167,217.333 49.021,217.333 48.843 C 217.333 48.665,217.408 48.473,217.500 48.417 C 217.592 48.360,217.667 48.177,217.667 48.011 C 217.667 47.844,217.779 47.614,217.917 47.500 C 218.054 47.386,218.167 47.114,218.167 46.896 C 218.167 46.678,218.242 46.500,218.333 46.500 C 218.425 46.500,218.502 46.369,218.505 46.208 C 218.508 46.048,218.621 45.771,218.755 45.593 C 218.890 45.415,219.000 45.134,219.000 44.968 C 219.000 44.802,219.075 44.667,219.167 44.667 C 219.258 44.667,219.333 44.479,219.333 44.250 C 219.333 44.021,219.408 43.833,219.500 43.833 C 219.592 43.833,219.667 43.698,219.667 43.532 C 219.667 43.366,219.777 43.085,219.911 42.907 C 220.046 42.729,220.158 42.452,220.161 42.292 C 220.164 42.131,220.242 42.000,220.333 42.000 C 220.425 42.000,220.500 41.813,220.500 41.583 C 220.500 41.354,220.575 41.167,220.667 41.167 C 220.758 41.167,220.833 41.050,220.833 40.908 C 220.833 40.471,221.349 39.615,221.513 39.780 C 221.600 39.867,221.683 45.286,221.707 52.591 L 221.750 65.250 227.583 65.250 L 233.417 65.250 233.459 44.208 L 233.501 23.167 225.584 23.167 L 217.667 23.167 217.667 23.583 C 217.667 23.813,217.598 24.000,217.513 24.000 C 217.429 24.000,217.310 24.225,217.250 24.500 C 217.190 24.775,217.071 25.000,216.987 25.000 C 216.902 25.000,216.833 25.151,216.833 25.336 C 216.833 25.520,216.765 25.801,216.682 25.961 C 216.598 26.120,216.327 26.700,216.079 27.250 C 215.832 27.800,215.563 28.380,215.481 28.539 C 215.400 28.699,215.333 28.933,215.333 29.061 C 215.333 29.188,215.221 29.386,215.083 29.500 C 214.946 29.614,214.833 29.886,214.833 30.104 C 214.833 30.322,214.758 30.500,214.667 30.500 C 214.575 30.500,214.500 30.688,214.500 30.917 C 214.500 31.146,214.425 31.333,214.333 31.333 C 214.242 31.333,214.167 31.478,214.167 31.655 C 214.167 31.832,214.054 32.089,213.917 32.226 C 213.779 32.364,213.667 32.632,213.667 32.821 C 213.667 33.011,213.592 33.167,213.500 33.167 C 213.408 33.167,213.333 33.350,213.333 33.573 C 213.333 33.797,213.258 34.027,213.167 34.083 C 213.075 34.140,213.000 34.334,213.000 34.515 C 213.000 34.696,212.887 34.887,212.750 34.940 C 212.612 34.992,212.500 35.179,212.500 35.353 C 212.500 35.528,212.431 35.801,212.347 35.961 C 212.042 36.539,211.667 37.471,211.667 37.650 C 211.667 37.751,211.592 37.833,211.500 37.833 C 211.408 37.833,211.333 38.021,211.333 38.250 C 211.333 38.479,211.258 38.667,211.167 38.667 C 211.075 38.667,211.000 38.845,211.000 39.063 C 211.000 39.281,210.887 39.553,210.750 39.667 C 210.612 39.781,210.500 40.015,210.500 40.187 C 210.500 40.359,210.425 40.500,210.333 40.500 C 210.242 40.500,210.167 40.643,210.167 40.818 C 210.167 40.993,209.970 41.537,209.730 42.026 C 209.490 42.516,209.235 43.067,209.164 43.250 C 209.092 43.433,208.914 43.857,208.767 44.192 C 208.620 44.527,208.500 44.883,208.500 44.984 C 208.500 45.084,208.425 45.167,208.333 45.167 C 208.242 45.167,208.167 45.345,208.167 45.563 C 208.167 45.977,207.799 46.410,207.610 46.221 C 207.549 46.160,207.500 45.974,207.500 45.806 C 207.500 45.638,207.425 45.500,207.333 45.500 C 207.242 45.500,207.167 45.313,207.167 45.083 C 207.167 44.854,207.098 44.667,207.013 44.667 C 206.929 44.667,206.811 44.443,206.750 44.169 C 206.690 43.895,206.572 43.628,206.487 43.575 C 206.403 43.523,206.333 43.335,206.333 43.157 C 206.333 42.979,206.258 42.833,206.167 42.833 C 206.075 42.833,206.000 42.741,206.000 42.627 C 206.000 42.452,205.506 41.319,204.981 40.294 C 204.900 40.135,204.833 39.900,204.833 39.773 C 204.833 39.645,204.721 39.447,204.583 39.333 C 204.446 39.219,204.333 38.985,204.333 38.813 C 204.333 38.641,204.258 38.500,204.167 38.500 C 204.075 38.500,204.000 38.313,204.000 38.083 C 204.000 37.854,203.925 37.667,203.833 37.667 C 203.742 37.667,203.667 37.531,203.667 37.365 C 203.667 37.199,203.557 36.918,203.422 36.740 C 203.287 36.562,203.175 36.285,203.172 36.125 C 203.169 35.965,203.092 35.833,203.000 35.833 C 202.908 35.833,202.833 35.652,202.833 35.431 C 202.833 35.209,202.777 35.003,202.708 34.972 C 202.591 34.920,202.268 34.285,201.875 33.333 C 201.780 33.104,201.497 32.467,201.246 31.917 C 200.995 31.367,200.716 30.729,200.626 30.500 C 200.535 30.271,200.395 29.971,200.313 29.833 C 200.231 29.696,200.122 29.471,200.070 29.333 C 200.018 29.196,199.906 28.953,199.821 28.794 C 199.736 28.635,199.667 28.391,199.667 28.252 C 199.667 28.114,199.592 28.000,199.500 28.000 C 199.408 28.000,199.331 27.869,199.328 27.708 C 199.325 27.548,199.213 27.271,199.078 27.093 C 198.943 26.915,198.833 26.634,198.833 26.468 C 198.833 26.302,198.758 26.167,198.667 26.167 C 198.575 26.167,198.500 26.021,198.500 25.843 C 198.500 25.665,198.425 25.473,198.333 25.417 C 198.242 25.360,198.167 25.139,198.167 24.925 C 198.167 24.711,198.054 24.492,197.917 24.440 C 197.779 24.387,197.667 24.203,197.667 24.031 C 197.667 23.167,197.664 23.167,189.278 23.167 L 181.499 23.167 181.541 44.208 M240.874 44.208 L 240.917 65.250 247.064 65.294 C 251.462 65.325,253.276 65.284,253.439 65.148 C 253.676 64.951,253.800 24.042,253.566 23.430 C 253.476 23.196,252.754 23.167,247.148 23.167 L 240.832 23.167 240.874 44.208 M306.111 23.278 C 305.894 23.495,305.982 64.915,306.200 65.133 C 306.458 65.391,318.425 65.424,318.583 65.167 C 318.640 65.075,318.680 61.577,318.672 57.394 C 318.659 50.485,318.683 49.758,318.938 49.477 C 319.288 49.090,333.918 48.985,334.300 49.367 C 334.450 49.516,334.500 51.502,334.500 57.277 C 334.500 64.762,334.510 64.993,334.826 65.163 C 335.041 65.278,337.221 65.323,341.201 65.294 L 347.250 65.250 347.292 44.208 L 347.335 23.167 341.010 23.167 C 337.112 23.167,334.648 23.229,334.587 23.328 C 334.532 23.417,334.491 26.821,334.497 30.892 C 334.505 37.531,334.479 38.306,334.239 38.398 C 333.474 38.691,319.221 38.503,318.942 38.195 C 318.695 37.921,318.667 37.145,318.667 30.529 L 318.667 23.167 312.444 23.167 C 309.022 23.167,306.172 23.217,306.111 23.278 M351.576 23.376 C 351.531 23.492,351.515 25.761,351.539 28.419 L 351.583 33.250 358.297 33.333 L 365.010 33.417 365.003 49.201 C 364.995 64.744,365.000 64.988,365.324 65.162 C 365.542 65.278,367.718 65.323,371.785 65.294 L 377.917 65.250 378.000 49.333 L 378.083 33.417 384.961 33.373 L 391.838 33.330 391.794 28.290 L 391.750 23.250 371.703 23.208 C 355.652 23.174,351.641 23.207,351.576 23.376 M253.333 44.333 C 253.333 63.286,253.311 65.000,253.063 65.000 C 252.854 65.000,252.835 64.949,252.981 64.773 C 253.119 64.606,253.158 59.115,253.126 44.106 C 253.103 32.865,253.140 23.667,253.208 23.667 C 253.277 23.667,253.333 32.967,253.333 44.333 M296.883 23.851 C 296.751 23.982,296.612 23.984,296.391 23.856 C 296.121 23.699,296.144 23.676,296.575 23.672 C 296.934 23.668,297.017 23.716,296.883 23.851 M391.659 28.250 C 391.647 30.893,391.574 32.833,391.486 32.833 C 391.397 32.833,391.333 30.908,391.333 28.250 C 391.333 25.194,391.391 23.667,391.506 23.667 C 391.622 23.667,391.672 25.181,391.659 28.250 M285.711 32.784 C 285.506 32.824,285.131 32.825,284.877 32.786 C 284.624 32.748,284.792 32.716,285.250 32.714 C 285.708 32.713,285.916 32.744,285.711 32.784 M292.292 32.788 C 291.948 32.824,291.385 32.824,291.042 32.788 C 290.698 32.752,290.979 32.723,291.667 32.723 C 292.354 32.723,292.635 32.752,292.292 32.788 M377.751 64.971 C 377.586 65.136,377.584 64.750,377.667 49.333 L 377.750 33.750 377.793 49.319 C 377.816 57.881,377.797 64.925,377.751 64.971 M330.458 38.792 C 328.373 38.818,324.960 38.818,322.875 38.792 C 320.790 38.765,322.496 38.743,326.667 38.743 C 330.837 38.743,332.544 38.765,330.458 38.792 M272.451 45.040 C 272.411 45.247,272.377 45.117,272.375 44.750 C 272.374 44.383,272.406 44.214,272.448 44.373 C 272.490 44.532,272.491 44.832,272.451 45.040 M298.500 55.000 C 298.500 63.806,298.476 64.667,298.230 64.667 C 298.018 64.667,298.001 64.616,298.150 64.436 C 298.290 64.268,298.329 61.680,298.296 54.770 C 298.271 49.580,298.306 45.333,298.375 45.333 C 298.444 45.333,298.500 49.683,298.500 55.000 " stroke="none" fill="#4cfb94" fill-rule="evenodd"></path><path id="path1" d="M8.633 28.375 C 8.605 38.390,8.605 53.690,8.632 62.375 L 8.681 78.167 90.215 78.125 L 171.750 78.083 171.750 44.167 L 171.750 10.250 90.216 10.208 L 8.682 10.166 8.633 28.375 M169.667 44.331 L 169.667 75.994 169.292 76.084 C 169.085 76.134,133.404 76.154,90.000 76.129 L 11.083 76.083 11.041 44.500 C 11.018 27.129,11.027 12.842,11.062 12.750 C 11.103 12.639,37.662 12.597,90.395 12.625 L 169.667 12.667 169.667 44.331 M107.465 22.958 C 107.367 23.077,106.912 23.167,106.406 23.167 C 105.919 23.167,105.473 23.242,105.417 23.333 C 105.360 23.425,105.112 23.502,104.865 23.505 C 104.618 23.508,104.271 23.621,104.093 23.755 C 103.915 23.890,103.601 24.000,103.395 24.000 C 103.188 24.000,102.973 24.075,102.917 24.167 C 102.860 24.258,102.674 24.333,102.504 24.333 C 102.334 24.333,102.169 24.390,102.139 24.458 C 102.108 24.527,101.783 24.733,101.417 24.915 C 101.050 25.098,100.712 25.285,100.667 25.332 C 100.621 25.378,100.384 25.529,100.140 25.667 C 98.764 26.442,96.444 28.759,95.739 30.061 C 94.807 31.783,94.333 32.747,94.333 32.921 C 94.333 33.035,94.221 33.343,94.084 33.606 C 93.947 33.869,93.835 34.215,93.834 34.375 C 93.834 34.535,93.758 34.667,93.667 34.667 C 93.575 34.667,93.500 34.962,93.500 35.323 C 93.500 35.685,93.425 36.027,93.333 36.083 C 93.242 36.140,93.167 36.477,93.167 36.832 C 93.167 37.188,93.093 37.671,93.003 37.907 C 92.590 38.995,92.220 45.128,92.485 46.500 C 92.582 47.004,92.682 48.092,92.706 48.917 C 92.730 49.742,92.818 50.466,92.902 50.526 C 92.985 50.587,93.088 51.057,93.131 51.571 C 93.174 52.085,93.274 52.547,93.354 52.596 C 93.434 52.646,93.500 52.940,93.500 53.250 C 93.500 53.560,93.575 53.860,93.667 53.917 C 93.758 53.973,93.834 54.146,93.834 54.302 C 93.835 54.457,93.947 54.798,94.084 55.061 C 94.221 55.323,94.333 55.643,94.333 55.771 C 94.333 56.021,94.416 56.207,94.989 57.250 C 95.190 57.617,95.396 58.048,95.447 58.208 C 95.497 58.369,95.605 58.500,95.686 58.500 C 95.767 58.500,95.833 58.580,95.833 58.678 C 95.833 58.944,97.016 60.489,97.854 61.318 C 98.486 61.943,99.616 62.831,100.135 63.110 C 100.382 63.243,100.808 63.492,101.083 63.664 C 101.358 63.835,101.715 63.981,101.875 63.988 C 102.035 63.995,102.167 64.075,102.167 64.167 C 102.167 64.258,102.302 64.333,102.468 64.333 C 102.634 64.333,102.915 64.443,103.093 64.578 C 103.271 64.713,103.618 64.825,103.865 64.828 C 104.112 64.831,104.355 64.900,104.406 64.982 C 104.504 65.142,104.673 65.172,107.750 65.589 C 110.817 66.005,111.677 66.050,112.582 65.842 C 113.041 65.737,114.129 65.582,115.000 65.497 C 117.059 65.298,117.841 65.179,118.250 65.001 C 118.433 64.921,118.808 64.818,119.083 64.772 C 119.763 64.657,121.036 64.278,121.292 64.114 C 121.710 63.846,121.557 62.443,121.125 62.581 C 120.919 62.647,120.506 62.739,120.207 62.786 C 119.908 62.832,119.622 62.937,119.572 63.018 C 119.522 63.100,119.237 63.167,118.940 63.167 C 118.643 63.167,118.322 63.244,118.228 63.339 C 117.163 64.404,105.664 64.398,104.599 63.332 C 104.508 63.241,104.297 63.167,104.131 63.167 C 103.965 63.167,103.699 63.099,103.539 63.017 C 103.380 62.935,102.837 62.661,102.333 62.410 C 101.829 62.158,101.229 61.854,101.000 61.733 C 100.135 61.278,97.507 58.504,97.502 58.042 C 97.501 57.927,97.436 57.833,97.357 57.833 C 97.156 57.833,95.833 55.093,95.833 54.677 C 95.833 54.488,95.758 54.333,95.667 54.333 C 95.575 54.333,95.500 54.071,95.500 53.750 C 95.500 53.429,95.425 53.167,95.333 53.167 C 95.242 53.167,95.167 52.864,95.167 52.494 C 95.167 52.124,95.062 51.655,94.935 51.452 C 94.203 50.286,94.245 37.522,94.983 36.783 C 95.084 36.682,95.167 36.357,95.167 36.060 C 95.167 35.763,95.242 35.473,95.333 35.417 C 95.425 35.360,95.500 35.092,95.500 34.821 C 95.500 34.550,95.562 34.199,95.638 34.039 C 95.715 33.880,95.902 33.500,96.055 33.195 C 96.208 32.889,96.333 32.533,96.333 32.403 C 96.333 32.273,96.408 32.167,96.500 32.167 C 96.592 32.167,96.667 32.042,96.667 31.891 C 96.667 31.739,96.854 31.369,97.083 31.069 C 97.313 30.768,97.500 30.474,97.500 30.416 C 97.500 30.357,97.594 30.213,97.708 30.096 C 97.823 29.979,98.207 29.533,98.562 29.105 C 99.432 28.055,100.956 26.922,102.577 26.119 C 103.314 25.754,104.047 25.391,104.206 25.311 C 104.365 25.232,104.651 25.167,104.842 25.167 C 105.033 25.167,105.331 25.091,105.505 24.997 C 105.679 24.904,106.180 24.806,106.619 24.778 C 107.058 24.750,107.580 24.639,107.781 24.530 C 108.322 24.238,114.763 24.262,115.703 24.560 C 116.095 24.685,116.733 24.793,117.119 24.801 C 117.505 24.809,117.969 24.894,118.150 24.991 C 118.330 25.088,118.731 25.167,119.039 25.167 C 119.348 25.167,119.671 25.235,119.758 25.318 C 119.845 25.402,120.254 25.495,120.667 25.527 L 121.417 25.583 121.467 24.792 L 121.518 24.000 120.967 23.994 C 120.665 23.991,120.229 23.881,120.000 23.750 C 119.771 23.619,119.344 23.509,119.052 23.506 C 118.759 23.503,118.473 23.425,118.417 23.333 C 118.360 23.242,117.910 23.167,117.418 23.167 C 116.925 23.167,116.311 23.083,116.053 22.980 C 115.354 22.703,107.694 22.683,107.465 22.958 M21.278 23.278 C 20.979 23.577,21.170 24.629,21.542 24.728 C 21.748 24.784,25.262 24.830,29.351 24.831 L 36.786 24.833 36.887 26.292 C 36.943 27.094,36.952 36.066,36.906 46.229 C 36.815 66.737,36.757 65.371,37.722 65.301 L 38.417 65.250 38.459 45.043 L 38.501 24.837 46.126 24.793 L 53.750 24.750 53.801 23.958 L 53.852 23.167 37.620 23.167 C 28.693 23.167,21.339 23.217,21.278 23.278 M60.577 23.375 C 60.533 23.490,60.517 32.958,60.540 44.417 L 60.583 65.250 73.167 65.296 C 87.467 65.348,86.537 65.407,86.468 64.453 L 86.417 63.750 74.333 63.664 C 67.688 63.617,62.231 63.560,62.208 63.539 C 61.933 63.282,62.208 44.657,62.489 44.506 C 62.701 44.392,66.321 44.333,73.082 44.333 L 83.352 44.333 83.301 43.625 L 83.250 42.917 72.750 42.833 L 62.250 42.750 62.250 33.833 L 62.250 24.917 74.083 24.833 L 85.917 24.750 85.967 23.958 L 86.018 23.167 73.337 23.167 C 63.346 23.167,60.639 23.211,60.577 23.375 M128.914 23.365 C 128.868 23.485,128.850 32.958,128.874 44.417 L 128.917 65.250 129.667 65.250 L 130.417 65.250 130.460 54.926 C 130.493 46.920,130.549 44.572,130.710 44.470 C 131.012 44.278,157.195 44.304,157.500 44.496 C 157.716 44.633,157.761 46.042,157.833 54.952 L 157.917 65.250 158.708 65.301 L 159.500 65.352 159.500 44.250 L 159.500 23.148 158.708 23.199 L 157.917 23.250 157.874 32.908 C 157.840 40.380,157.784 42.595,157.624 42.697 C 157.510 42.769,151.361 42.829,143.960 42.831 L 130.503 42.833 130.460 33.042 L 130.417 23.250 129.707 23.199 C 129.236 23.165,128.969 23.221,128.914 23.365 " stroke="none" fill="#04c350" fill-rule="evenodd"></path><path id="path2" d="M8.093 9.952 C 8.033 10.109,7.991 18.753,8.001 29.160 C 8.022 52.104,8.038 50.210,7.831 50.082 C 7.626 49.955,6.500 50.983,6.500 51.297 C 6.500 51.419,6.421 51.471,6.324 51.411 C 6.207 51.338,6.165 51.599,6.199 52.193 C 6.260 53.262,7.083 53.599,7.694 52.805 C 7.944 52.480,8.254 77.056,8.020 78.542 C 8.009 78.610,8.113 78.667,8.250 78.667 C 8.471 78.667,8.500 74.741,8.500 44.333 L 8.500 9.999 90.208 10.000 C 135.148 10.000,172.015 10.001,172.135 10.000 C 172.255 10.000,172.307 9.925,172.250 9.833 C 172.042 9.496,8.222 9.615,8.093 9.952 M11.167 44.181 C 11.167 69.318,11.209 75.680,11.375 75.625 C 11.539 75.570,11.583 73.020,11.583 63.619 C 11.583 56.081,11.642 51.742,11.742 51.842 C 11.983 52.083,12.499 52.031,12.605 51.755 C 12.707 51.488,12.330 50.500,12.126 50.500 C 12.057 50.500,12.000 50.319,12.000 50.097 C 12.000 49.876,11.930 49.669,11.843 49.639 C 11.659 49.573,11.433 48.133,11.495 47.417 C 11.519 47.142,11.548 46.673,11.561 46.375 C 11.573 46.077,11.642 45.833,11.714 45.833 C 11.786 45.833,11.795 45.458,11.734 45.000 C 11.636 44.257,11.658 44.166,11.937 44.164 C 12.172 44.162,12.195 44.126,12.028 44.021 C 11.842 43.903,11.842 43.866,12.028 43.794 C 12.445 43.634,12.426 41.167,12.007 41.167 C 11.667 41.167,11.667 41.150,11.667 27.167 L 11.667 13.167 90.500 13.167 C 160.463 13.167,169.333 13.139,169.333 12.917 C 169.333 12.695,160.435 12.667,90.250 12.667 L 11.167 12.667 11.167 44.181 M106.951 22.271 C 106.651 22.571,106.927 22.667,108.097 22.667 C 109.034 22.667,109.343 22.613,109.292 22.458 C 109.217 22.231,107.156 22.066,106.951 22.271 M112.713 22.389 C 112.756 22.519,113.448 22.599,114.821 22.630 C 116.425 22.667,116.849 22.631,116.793 22.464 C 116.741 22.308,116.173 22.242,114.685 22.222 C 113.196 22.202,112.665 22.246,112.713 22.389 M280.596 22.312 C 280.547 22.393,280.077 22.494,279.553 22.537 C 279.029 22.581,278.571 22.703,278.536 22.808 C 278.498 22.924,278.082 23.000,277.486 23.000 C 276.940 23.000,276.500 23.074,276.500 23.167 C 276.500 23.258,276.131 23.333,275.681 23.333 C 275.230 23.333,274.834 23.413,274.802 23.511 C 274.769 23.608,274.426 23.731,274.038 23.783 C 273.650 23.835,273.333 23.942,273.333 24.022 C 273.333 24.102,273.146 24.167,272.917 24.167 C 272.688 24.167,272.500 24.242,272.500 24.333 C 272.500 24.425,272.237 24.500,271.917 24.500 C 271.509 24.500,271.333 24.575,271.333 24.750 C 271.333 24.906,271.176 25.000,270.917 25.000 C 270.688 25.000,270.500 25.075,270.500 25.167 C 270.500 25.258,270.350 25.333,270.167 25.333 C 269.983 25.333,269.833 25.408,269.833 25.500 C 269.833 25.592,269.646 25.667,269.417 25.667 C 269.157 25.667,269.000 25.761,269.000 25.917 C 269.000 26.066,268.847 26.167,268.620 26.167 C 268.411 26.167,268.132 26.317,268.000 26.500 C 267.868 26.683,267.637 26.833,267.487 26.833 C 267.336 26.833,267.073 27.021,266.900 27.250 C 266.728 27.479,266.466 27.667,266.317 27.667 C 266.168 27.667,265.906 27.854,265.734 28.083 C 265.562 28.313,265.358 28.500,265.282 28.500 C 265.118 28.500,264.667 28.928,264.667 29.083 C 264.667 29.222,264.222 29.667,264.083 29.667 C 263.851 29.667,263.500 30.161,263.500 30.488 C 263.500 30.678,263.400 30.833,263.278 30.833 C 263.156 30.833,262.956 31.021,262.833 31.250 C 262.711 31.479,262.548 31.667,262.472 31.667 C 262.396 31.667,262.333 31.771,262.333 31.899 C 262.333 32.027,262.221 32.174,262.083 32.227 C 261.946 32.280,261.833 32.438,261.833 32.578 C 261.833 32.718,261.758 32.833,261.667 32.833 C 261.575 32.833,261.500 32.983,261.500 33.167 C 261.500 33.350,261.425 33.500,261.333 33.500 C 261.242 33.500,261.167 33.679,261.167 33.899 C 261.167 34.118,261.054 34.341,260.917 34.394 C 260.779 34.446,260.667 34.637,260.667 34.818 C 260.667 34.999,260.592 35.193,260.500 35.250 C 260.408 35.307,260.333 35.574,260.333 35.843 C 260.333 36.113,260.258 36.333,260.167 36.333 C 260.075 36.333,260.000 36.588,260.000 36.899 C 260.000 37.248,259.904 37.501,259.750 37.560 C 259.569 37.630,259.500 37.912,259.500 38.578 C 259.500 39.085,259.430 39.500,259.343 39.500 C 259.257 39.500,259.149 40.344,259.103 41.375 C 259.057 42.406,258.970 43.681,258.911 44.208 C 258.838 44.856,258.861 45.167,258.985 45.167 C 259.087 45.167,259.169 44.856,259.173 44.458 C 259.176 44.069,259.286 43.563,259.417 43.333 C 259.574 43.058,259.657 42.398,259.661 41.385 C 259.664 40.542,259.742 39.807,259.833 39.750 C 259.925 39.693,260.000 39.424,260.000 39.151 C 260.000 38.879,260.112 38.387,260.250 38.058 C 260.387 37.729,260.500 37.281,260.500 37.063 C 260.500 36.845,260.575 36.667,260.667 36.667 C 260.758 36.667,260.833 36.442,260.833 36.167 C 260.833 35.892,260.902 35.667,260.987 35.667 C 261.071 35.667,261.189 35.443,261.250 35.169 C 261.310 34.895,261.428 34.628,261.513 34.575 C 261.597 34.523,261.667 34.335,261.667 34.157 C 261.667 33.979,261.724 33.833,261.794 33.833 C 261.921 33.833,262.222 33.339,262.429 32.792 C 262.489 32.631,262.605 32.500,262.686 32.500 C 262.767 32.500,262.833 32.420,262.833 32.321 C 262.833 32.223,262.927 32.044,263.042 31.923 C 263.156 31.802,263.399 31.489,263.581 31.227 C 264.418 30.020,267.938 27.000,268.508 27.000 C 268.595 27.000,268.667 26.939,268.667 26.864 C 268.667 26.790,268.933 26.624,269.258 26.497 C 269.583 26.369,269.930 26.168,270.028 26.049 C 270.127 25.930,270.348 25.833,270.520 25.833 C 270.693 25.833,270.833 25.758,270.833 25.667 C 270.833 25.575,270.934 25.500,271.058 25.500 C 271.267 25.500,272.034 25.185,272.706 24.823 C 272.865 24.737,273.142 24.667,273.321 24.667 C 273.500 24.667,273.693 24.592,273.750 24.500 C 273.807 24.408,274.041 24.333,274.271 24.333 C 274.501 24.333,274.828 24.259,274.998 24.168 C 275.168 24.077,275.594 23.957,275.945 23.903 C 276.296 23.848,276.608 23.735,276.639 23.651 C 276.669 23.568,277.103 23.500,277.602 23.500 C 278.175 23.500,278.540 23.423,278.591 23.292 C 278.646 23.151,279.077 23.082,279.914 23.080 C 280.672 23.079,281.236 22.997,281.361 22.872 C 281.692 22.541,292.632 22.581,293.273 22.916 C 293.553 23.062,294.199 23.165,294.842 23.166 C 295.442 23.166,296.005 23.235,296.092 23.319 C 296.179 23.403,296.438 23.497,296.667 23.528 L 297.083 23.583 297.083 28.667 L 297.083 33.750 296.699 33.804 C 296.488 33.834,296.209 33.771,296.080 33.664 C 295.951 33.557,295.336 33.457,294.714 33.443 C 294.073 33.428,293.488 33.326,293.363 33.208 C 293.070 32.931,284.748 32.911,284.053 33.186 C 283.794 33.288,283.152 33.386,282.625 33.403 C 282.098 33.420,281.576 33.524,281.466 33.634 C 281.357 33.743,281.024 33.833,280.727 33.833 C 280.429 33.833,280.140 33.908,280.083 34.000 C 280.027 34.092,279.850 34.167,279.691 34.167 C 279.123 34.167,276.471 35.675,275.747 36.411 C 274.818 37.353,273.500 39.526,273.500 40.114 C 273.500 40.290,273.432 40.505,273.348 40.592 C 272.846 41.115,272.846 47.883,273.349 48.408 C 273.432 48.495,273.500 48.733,273.500 48.936 C 273.500 49.318,273.987 50.374,274.208 50.472 C 274.277 50.503,274.333 50.602,274.333 50.692 C 274.333 51.366,277.375 54.167,278.108 54.167 C 278.232 54.167,278.333 54.242,278.333 54.333 C 278.333 54.425,278.506 54.500,278.717 54.500 C 278.927 54.500,279.183 54.583,279.285 54.685 C 279.387 54.787,279.683 54.886,279.944 54.907 C 280.204 54.928,280.581 55.032,280.781 55.139 C 280.981 55.246,281.600 55.333,282.156 55.333 C 282.719 55.333,283.167 55.407,283.167 55.500 C 283.167 55.601,283.889 55.667,285.000 55.667 L 286.833 55.667 286.833 50.437 C 286.833 45.921,286.869 45.178,287.091 44.993 C 287.384 44.751,287.152 44.507,286.625 44.503 C 286.353 44.500,286.333 44.865,286.333 49.850 L 286.333 55.200 284.875 55.100 C 281.912 54.897,281.251 54.803,281.117 54.567 C 281.034 54.421,280.704 54.333,280.242 54.333 C 279.834 54.333,279.500 54.258,279.500 54.167 C 279.500 54.075,279.313 54.000,279.083 54.000 C 278.854 54.000,278.667 53.925,278.667 53.833 C 278.667 53.742,278.563 53.667,278.437 53.667 C 278.311 53.667,278.114 53.554,278.000 53.417 C 277.886 53.279,277.683 53.167,277.549 53.167 C 277.415 53.167,277.064 52.918,276.768 52.614 C 276.473 52.309,276.104 52.012,275.949 51.952 C 275.794 51.893,275.667 51.739,275.667 51.612 C 275.667 51.484,275.479 51.239,275.250 51.067 C 275.021 50.895,274.833 50.626,274.833 50.470 C 274.833 50.314,274.758 50.140,274.667 50.083 C 274.575 50.027,274.500 49.835,274.500 49.657 C 274.500 49.479,274.387 49.333,274.250 49.333 C 274.075 49.333,274.000 49.157,274.000 48.750 C 274.000 48.429,273.925 48.167,273.833 48.167 C 273.738 48.167,273.667 47.667,273.667 47.000 C 273.667 46.333,273.595 45.833,273.500 45.833 C 273.406 45.833,273.333 45.364,273.333 44.760 C 273.333 44.169,273.408 43.640,273.500 43.583 C 273.592 43.527,273.667 42.922,273.667 42.240 C 273.667 41.524,273.737 41.000,273.833 41.000 C 273.925 41.000,274.000 40.747,274.000 40.437 C 274.000 40.127,274.097 39.794,274.216 39.695 C 274.334 39.597,274.536 39.250,274.664 38.925 C 274.791 38.599,274.957 38.333,275.031 38.333 C 275.106 38.333,275.167 38.229,275.167 38.101 C 275.167 37.973,275.279 37.826,275.417 37.773 C 275.554 37.720,275.667 37.562,275.667 37.422 C 275.667 37.282,275.742 37.167,275.833 37.167 C 275.925 37.167,276.000 37.081,276.000 36.977 C 276.000 36.721,276.515 36.345,276.875 36.339 C 277.035 36.336,277.167 36.221,277.167 36.083 C 277.167 35.946,277.279 35.833,277.417 35.833 C 277.554 35.833,277.667 35.758,277.667 35.667 C 277.667 35.575,277.817 35.500,278.000 35.500 C 278.183 35.500,278.333 35.425,278.333 35.333 C 278.333 35.242,278.521 35.167,278.750 35.167 C 279.009 35.167,279.167 35.072,279.167 34.917 C 279.167 34.742,279.343 34.667,279.750 34.667 C 280.071 34.667,280.333 34.592,280.333 34.500 C 280.333 34.408,280.671 34.333,281.083 34.333 C 281.496 34.333,281.833 34.269,281.833 34.189 C 281.833 34.110,282.337 34.005,282.953 33.956 C 283.569 33.906,284.100 33.784,284.133 33.683 C 284.238 33.369,293.071 33.433,293.333 33.750 C 293.473 33.919,293.849 34.000,294.487 34.000 C 295.008 34.000,295.512 34.079,295.609 34.175 C 295.706 34.273,296.256 34.328,296.850 34.300 L 297.917 34.250 297.961 28.952 C 298.010 22.962,298.017 23.000,296.931 23.000 C 296.529 23.000,296.125 22.901,296.022 22.776 C 295.919 22.652,295.459 22.540,294.984 22.523 C 294.515 22.506,293.994 22.419,293.826 22.330 C 293.443 22.125,280.723 22.108,280.596 22.312 M21.006 22.828 C 20.568 23.265,20.506 25.116,20.924 25.276 C 21.269 25.408,21.443 25.210,21.197 24.964 C 21.089 24.855,21.000 24.368,21.000 23.881 L 21.000 22.995 37.708 23.002 C 51.166 23.008,54.417 22.968,54.417 22.796 C 54.417 22.372,21.431 22.403,21.006 22.828 M60.111 22.611 C 59.818 22.904,59.991 65.486,60.287 65.831 C 60.570 66.162,60.753 66.167,73.412 66.161 C 88.349 66.155,87.000 66.333,87.000 64.368 C 87.000 63.303,86.968 63.197,86.625 63.105 C 85.686 62.853,62.667 62.993,62.667 63.250 C 62.667 63.470,64.111 63.500,74.667 63.500 L 86.667 63.500 86.667 64.583 L 86.667 65.667 73.499 65.667 L 60.332 65.667 60.374 44.375 L 60.417 23.083 73.314 23.041 L 86.212 22.998 86.127 24.174 C 86.054 25.195,86.079 25.343,86.313 25.297 C 86.535 25.255,86.583 25.009,86.583 23.914 L 86.583 22.583 73.403 22.542 C 66.153 22.519,60.172 22.550,60.111 22.611 M105.375 22.613 C 104.914 22.793,105.211 23.000,105.931 23.000 C 106.461 23.000,106.674 22.937,106.626 22.795 C 106.556 22.585,105.749 22.468,105.375 22.613 M117.167 22.755 C 117.167 22.935,117.370 23.000,117.937 23.000 C 118.561 23.000,118.672 22.958,118.522 22.777 C 118.258 22.458,117.167 22.440,117.167 22.755 M128.124 22.693 C 127.961 22.794,127.907 27.327,127.873 44.048 L 127.828 65.276 128.211 65.721 C 128.628 66.207,129.998 66.358,130.678 65.994 C 131.046 65.797,131.200 44.833,130.833 44.833 C 130.724 44.833,130.666 48.293,130.664 54.875 C 130.662 66.656,130.778 65.667,129.397 65.667 L 128.332 65.667 128.374 44.375 L 128.417 23.083 129.500 23.083 L 130.583 23.083 130.626 32.875 L 130.669 42.667 144.043 42.667 L 157.417 42.667 157.417 32.875 L 157.417 23.083 158.542 23.034 L 159.667 22.985 159.667 44.333 L 159.667 65.682 158.542 65.633 L 157.417 65.583 157.374 55.292 C 157.346 48.623,157.273 45.000,157.165 45.000 C 157.058 45.000,157.000 48.585,157.000 55.265 L 157.000 65.530 157.375 65.843 C 157.857 66.245,159.460 66.298,159.606 65.917 C 159.659 65.779,159.807 65.667,159.934 65.667 C 160.224 65.667,160.289 22.929,160.000 22.750 C 159.852 22.658,158.388 22.602,157.375 22.649 L 157.000 22.667 157.000 32.417 L 157.000 42.167 144.000 42.167 L 131.000 42.167 130.997 32.542 C 130.996 27.248,130.940 22.841,130.872 22.748 C 130.729 22.551,128.429 22.505,128.124 22.693 M181.276 22.805 C 181.022 23.085,181.000 24.822,181.000 44.388 L 181.000 65.667 187.050 65.667 C 191.564 65.667,193.151 65.718,193.302 65.869 C 193.460 66.027,193.583 65.991,193.870 65.704 C 194.157 65.417,194.193 65.293,194.035 65.135 C 193.791 64.891,193.767 64.060,194.000 63.917 C 194.092 63.860,194.167 63.260,194.167 62.583 C 194.167 61.907,194.092 61.307,194.000 61.250 C 193.893 61.184,193.833 58.502,193.833 53.750 C 193.833 48.998,193.893 46.316,194.000 46.250 C 194.092 46.193,194.167 45.851,194.167 45.490 C 194.167 45.129,194.092 44.833,194.000 44.833 C 193.904 44.833,193.833 44.302,193.833 43.571 C 193.833 42.450,193.861 42.337,194.083 42.560 C 194.221 42.697,194.333 43.002,194.333 43.238 C 194.333 43.474,194.408 43.667,194.500 43.667 C 194.592 43.667,194.667 43.819,194.667 44.005 C 194.667 44.191,194.779 44.387,194.917 44.440 C 195.054 44.492,195.167 44.715,195.167 44.934 C 195.167 45.154,195.242 45.333,195.333 45.333 C 195.425 45.333,195.500 45.521,195.500 45.750 C 195.500 45.979,195.575 46.167,195.667 46.167 C 195.758 46.167,195.833 46.312,195.833 46.490 C 195.833 46.668,195.906 46.859,195.996 46.914 C 196.085 46.969,196.280 47.292,196.429 47.632 C 196.578 47.972,196.772 48.403,196.860 48.590 C 196.948 48.778,197.040 49.074,197.066 49.248 C 197.092 49.423,197.200 49.594,197.306 49.630 C 197.413 49.665,197.500 49.834,197.500 50.004 C 197.500 50.174,197.575 50.360,197.667 50.417 C 197.758 50.473,197.833 50.665,197.833 50.843 C 197.833 51.021,197.908 51.167,198.000 51.167 C 198.092 51.167,198.167 51.319,198.167 51.505 C 198.167 51.691,198.279 51.887,198.417 51.940 C 198.554 51.992,198.667 52.211,198.667 52.425 C 198.667 52.639,198.742 52.860,198.833 52.917 C 198.925 52.973,199.000 53.194,199.000 53.406 C 199.000 53.619,199.112 53.886,199.250 54.000 C 199.387 54.114,199.500 54.311,199.500 54.437 C 199.500 54.563,199.575 54.667,199.667 54.667 C 199.758 54.667,199.833 54.854,199.833 55.083 C 199.833 55.313,199.908 55.500,200.000 55.500 C 200.092 55.500,200.167 55.688,200.167 55.917 C 200.167 56.176,200.261 56.333,200.417 56.333 C 200.554 56.333,200.667 56.481,200.667 56.662 C 200.667 56.842,200.804 57.236,200.972 57.537 C 201.141 57.837,201.330 58.290,201.392 58.542 C 201.455 58.794,201.580 59.000,201.670 59.000 C 201.760 59.000,201.833 59.112,201.833 59.250 C 201.833 59.467,202.593 59.500,207.667 59.500 L 213.500 59.500 213.500 59.104 C 213.500 58.886,213.612 58.614,213.750 58.500 C 213.887 58.386,214.000 58.156,214.000 57.989 C 214.000 57.823,214.075 57.640,214.167 57.583 C 214.258 57.527,214.333 57.297,214.333 57.073 C 214.333 56.850,214.408 56.667,214.500 56.667 C 214.592 56.667,214.667 56.487,214.667 56.268 C 214.667 56.048,214.779 55.826,214.917 55.773 C 215.054 55.720,215.167 55.492,215.167 55.265 C 215.167 55.038,215.242 54.807,215.333 54.750 C 215.425 54.693,215.500 54.501,215.500 54.323 C 215.500 54.146,215.575 54.000,215.667 54.000 C 215.758 54.000,215.833 53.813,215.833 53.583 C 215.833 53.324,215.928 53.167,216.083 53.167 C 216.237 53.167,216.333 53.010,216.333 52.760 C 216.333 52.536,216.408 52.307,216.500 52.250 C 216.592 52.193,216.667 51.926,216.667 51.657 C 216.667 51.387,216.738 51.167,216.826 51.167 C 216.913 51.167,217.107 50.885,217.256 50.542 C 217.406 50.198,217.597 49.786,217.681 49.627 C 217.765 49.468,217.833 49.157,217.833 48.937 C 217.833 48.716,217.946 48.492,218.083 48.440 C 218.221 48.387,218.333 48.191,218.333 48.005 C 218.333 47.819,218.408 47.667,218.500 47.667 C 218.592 47.667,218.667 47.479,218.667 47.250 C 218.667 47.021,218.742 46.833,218.833 46.833 C 218.925 46.833,219.000 46.678,219.000 46.488 C 219.000 46.298,219.112 46.030,219.250 45.893 C 219.387 45.755,219.500 45.503,219.500 45.331 C 219.500 45.160,219.575 44.973,219.667 44.917 C 219.758 44.860,219.833 44.668,219.833 44.490 C 219.833 44.312,219.908 44.167,220.000 44.167 C 220.092 44.167,220.167 43.987,220.167 43.768 C 220.167 43.548,220.279 43.326,220.417 43.273 C 220.554 43.220,220.667 42.992,220.667 42.765 C 220.667 42.538,220.742 42.307,220.833 42.250 C 220.944 42.182,221.000 46.109,221.000 53.907 L 221.000 65.667 227.157 65.667 C 230.654 65.667,233.354 65.732,233.407 65.818 C 233.461 65.904,233.677 65.887,233.915 65.776 L 234.331 65.583 234.332 44.214 C 234.333 23.257,234.327 22.842,234.011 22.673 C 233.802 22.560,230.893 22.500,225.715 22.500 C 216.957 22.500,217.167 22.475,217.167 23.502 C 217.167 23.685,217.055 23.833,216.917 23.833 C 216.762 23.833,216.667 23.990,216.667 24.245 C 216.667 24.471,216.517 24.924,216.333 25.250 C 216.150 25.576,216.000 25.956,216.000 26.094 C 216.000 26.231,215.887 26.387,215.750 26.440 C 215.612 26.492,215.500 26.715,215.500 26.934 C 215.500 27.154,215.425 27.333,215.333 27.333 C 215.242 27.333,215.167 27.588,215.167 27.899 C 215.167 28.248,215.071 28.501,214.917 28.560 C 214.779 28.613,214.667 28.809,214.667 28.995 C 214.667 29.181,214.592 29.333,214.500 29.333 C 214.408 29.333,214.333 29.479,214.333 29.657 C 214.333 29.835,214.258 30.027,214.167 30.083 C 214.075 30.140,214.000 30.399,214.000 30.659 C 214.000 30.925,213.891 31.173,213.750 31.227 C 213.612 31.280,213.500 31.475,213.500 31.661 C 213.500 31.848,213.425 32.000,213.333 32.000 C 213.242 32.000,213.167 32.188,213.167 32.417 C 213.167 32.646,213.092 32.833,213.000 32.833 C 212.908 32.833,212.833 32.989,212.833 33.179 C 212.833 33.368,212.721 33.636,212.583 33.774 C 212.446 33.911,212.333 34.206,212.333 34.429 C 212.333 34.651,212.258 34.833,212.167 34.833 C 212.075 34.833,212.000 34.979,212.000 35.157 C 212.000 35.335,211.925 35.527,211.833 35.583 C 211.742 35.640,211.667 35.800,211.667 35.938 C 211.667 36.077,211.554 36.303,211.417 36.440 C 211.279 36.578,211.167 36.873,211.167 37.095 C 211.167 37.318,211.092 37.500,211.000 37.500 C 210.908 37.500,210.833 37.688,210.833 37.917 C 210.833 38.146,210.758 38.333,210.667 38.333 C 210.575 38.333,210.500 38.416,210.500 38.516 C 210.500 38.695,210.124 39.628,209.819 40.206 C 209.735 40.365,209.667 40.609,209.667 40.748 C 209.667 40.886,209.600 41.000,209.519 41.000 C 209.437 41.000,209.321 41.262,209.261 41.583 C 209.201 41.904,209.080 42.167,208.992 42.167 C 208.905 42.167,208.833 42.354,208.833 42.583 C 208.833 42.813,208.758 43.000,208.667 43.000 C 208.575 43.000,208.500 43.179,208.500 43.399 C 208.500 43.618,208.387 43.841,208.250 43.894 C 208.112 43.946,208.000 44.129,208.000 44.300 C 208.000 44.471,207.951 44.660,207.891 44.720 C 207.766 44.845,207.333 44.076,207.333 43.726 C 207.333 43.596,207.221 43.446,207.083 43.394 C 206.946 43.341,206.833 43.156,206.833 42.982 C 206.833 42.809,206.758 42.667,206.667 42.667 C 206.575 42.667,206.500 42.479,206.500 42.250 C 206.500 42.021,206.433 41.833,206.352 41.833 C 206.270 41.833,206.155 41.571,206.094 41.250 C 206.034 40.929,205.913 40.667,205.826 40.667 C 205.738 40.667,205.667 40.479,205.667 40.250 C 205.667 40.021,205.592 39.833,205.500 39.833 C 205.408 39.833,205.333 39.681,205.333 39.495 C 205.333 39.309,205.221 39.113,205.083 39.060 C 204.946 39.008,204.833 38.822,204.833 38.649 C 204.833 38.475,204.758 38.333,204.667 38.333 C 204.575 38.333,204.500 38.113,204.500 37.843 C 204.500 37.574,204.425 37.307,204.333 37.250 C 204.242 37.193,204.167 36.999,204.167 36.818 C 204.167 36.637,204.054 36.446,203.917 36.394 C 203.779 36.341,203.667 36.118,203.667 35.899 C 203.667 35.679,203.592 35.500,203.500 35.500 C 203.408 35.500,203.333 35.391,203.333 35.259 C 203.333 35.126,203.146 34.665,202.917 34.234 C 202.688 33.803,202.500 33.312,202.500 33.142 C 202.500 32.972,202.425 32.833,202.333 32.833 C 202.242 32.833,202.167 32.646,202.167 32.417 C 202.167 32.188,202.092 32.000,202.000 32.000 C 201.908 32.000,201.833 31.848,201.833 31.661 C 201.833 31.475,201.721 31.280,201.583 31.227 C 201.446 31.174,201.333 30.989,201.333 30.816 C 201.333 30.642,201.258 30.500,201.167 30.500 C 201.075 30.500,201.000 30.319,201.000 30.097 C 201.000 29.689,200.522 28.630,200.292 28.528 C 200.223 28.497,200.167 28.291,200.167 28.069 C 200.167 27.848,200.092 27.667,200.000 27.667 C 199.908 27.667,199.833 27.514,199.833 27.328 C 199.833 27.142,199.721 26.946,199.583 26.894 C 199.441 26.839,199.333 26.590,199.333 26.316 C 199.333 26.050,199.258 25.833,199.167 25.833 C 199.075 25.833,199.000 25.646,199.000 25.417 C 199.000 25.188,198.925 25.000,198.833 25.000 C 198.742 25.000,198.667 24.848,198.667 24.661 C 198.667 24.475,198.554 24.280,198.417 24.227 C 198.279 24.174,198.167 23.952,198.167 23.732 C 198.167 23.513,198.092 23.333,198.000 23.333 C 197.908 23.333,197.833 23.191,197.833 23.018 C 197.833 22.510,197.672 22.500,189.429 22.500 C 182.009 22.500,181.536 22.518,181.276 22.805 M240.446 22.609 C 240.291 22.765,240.303 65.634,240.458 65.698 C 240.527 65.727,243.602 65.730,247.292 65.705 L 254.001 65.659 253.959 44.121 L 253.917 22.583 247.238 22.540 C 243.565 22.516,240.508 22.547,240.446 22.609 M305.606 22.616 C 305.548 22.675,305.500 32.385,305.500 44.194 L 305.500 65.667 309.157 65.667 C 311.415 65.667,312.853 65.730,312.917 65.833 C 312.973 65.925,313.536 66.000,314.167 66.000 C 314.798 66.000,315.360 65.925,315.417 65.833 C 315.567 65.591,318.387 65.621,318.635 65.868 C 318.792 66.025,318.899 66.006,319.126 65.779 C 319.427 65.479,319.684 57.041,319.413 56.355 C 319.283 56.024,319.307 51.497,319.444 50.625 L 319.543 50.000 326.688 50.000 L 333.833 50.000 333.833 57.833 C 333.833 64.685,333.865 65.667,334.083 65.667 C 334.221 65.667,334.333 65.742,334.333 65.833 C 334.333 65.925,334.446 66.000,334.583 66.000 C 334.721 66.000,334.833 65.936,334.833 65.858 C 334.833 65.779,335.808 65.700,337.000 65.682 C 338.427 65.660,339.167 65.709,339.167 65.824 C 339.167 66.058,344.772 66.067,344.917 65.833 C 345.051 65.616,346.949 65.616,347.083 65.833 C 347.244 66.093,347.787 66.029,347.899 65.736 C 348.165 65.043,348.006 22.704,347.736 22.601 C 347.392 22.469,334.441 22.469,334.097 22.601 C 333.862 22.691,333.833 23.524,333.833 30.282 L 333.833 37.861 326.764 37.806 C 322.875 37.775,319.658 37.712,319.613 37.667 C 319.569 37.621,319.469 34.208,319.391 30.083 L 319.250 22.583 312.481 22.547 C 308.758 22.527,305.664 22.558,305.606 22.616 M351.167 22.732 C 351.167 22.860,351.054 23.008,350.917 23.060 C 350.531 23.208,350.543 33.352,350.929 33.738 C 351.158 33.967,352.018 34.000,357.845 34.000 L 364.500 34.000 364.500 49.833 C 364.500 63.796,364.530 65.667,364.750 65.667 C 364.887 65.667,365.000 65.742,365.000 65.833 C 365.000 65.925,365.146 66.000,365.323 66.000 C 365.501 66.000,365.693 65.925,365.750 65.833 C 365.887 65.611,370.446 65.611,370.583 65.833 C 370.720 66.054,374.614 66.054,374.750 65.833 C 374.903 65.585,377.721 65.621,377.978 65.875 C 378.653 66.541,378.667 66.227,378.667 49.720 L 378.667 34.004 385.458 33.960 L 392.250 33.917 392.294 28.345 C 392.328 23.998,392.292 22.743,392.127 22.639 C 391.716 22.378,351.167 22.470,351.167 22.732 M103.667 23.167 C 103.667 23.258,103.929 23.333,104.250 23.333 C 104.571 23.333,104.833 23.258,104.833 23.167 C 104.833 23.075,104.571 23.000,104.250 23.000 C 103.929 23.000,103.667 23.075,103.667 23.167 M119.167 23.167 C 119.167 23.258,119.429 23.333,119.750 23.333 C 120.071 23.333,120.333 23.258,120.333 23.167 C 120.333 23.075,120.071 23.000,119.750 23.000 C 119.429 23.000,119.167 23.075,119.167 23.167 M197.362 23.442 C 197.530 23.594,197.667 23.859,197.667 24.031 C 197.667 24.203,197.779 24.387,197.917 24.440 C 198.054 24.492,198.167 24.711,198.167 24.925 C 198.167 25.139,198.242 25.360,198.333 25.417 C 198.425 25.473,198.500 25.665,198.500 25.843 C 198.500 26.021,198.575 26.167,198.667 26.167 C 198.758 26.167,198.833 26.302,198.833 26.468 C 198.833 26.634,198.943 26.915,199.078 27.093 C 199.213 27.271,199.325 27.548,199.328 27.708 C 199.331 27.869,199.408 28.000,199.500 28.000 C 199.592 28.000,199.667 28.114,199.667 28.252 C 199.667 28.391,199.736 28.635,199.821 28.794 C 199.906 28.953,200.018 29.196,200.070 29.333 C 200.122 29.471,200.231 29.696,200.313 29.833 C 200.395 29.971,200.535 30.271,200.626 30.500 C 200.716 30.729,200.995 31.367,201.246 31.917 C 201.497 32.467,201.780 33.104,201.875 33.333 C 202.268 34.285,202.591 34.920,202.708 34.972 C 202.777 35.003,202.833 35.209,202.833 35.431 C 202.833 35.652,202.908 35.833,203.000 35.833 C 203.092 35.833,203.169 35.965,203.172 36.125 C 203.175 36.285,203.287 36.562,203.422 36.740 C 203.557 36.918,203.667 37.199,203.667 37.365 C 203.667 37.531,203.742 37.667,203.833 37.667 C 203.925 37.667,204.000 37.854,204.000 38.083 C 204.000 38.313,204.075 38.500,204.167 38.500 C 204.258 38.500,204.333 38.641,204.333 38.813 C 204.333 38.985,204.446 39.219,204.583 39.333 C 204.721 39.447,204.833 39.645,204.833 39.773 C 204.833 39.900,204.900 40.135,204.981 40.294 C 205.506 41.319,206.000 42.452,206.000 42.627 C 206.000 42.741,206.075 42.833,206.167 42.833 C 206.258 42.833,206.333 42.979,206.333 43.157 C 206.333 43.335,206.403 43.523,206.487 43.575 C 206.572 43.628,206.690 43.895,206.750 44.169 C 206.811 44.443,206.929 44.667,207.013 44.667 C 207.098 44.667,207.167 44.854,207.167 45.083 C 207.167 45.313,207.242 45.500,207.333 45.500 C 207.425 45.500,207.500 45.638,207.500 45.806 C 207.500 45.974,207.549 46.160,207.610 46.221 C 207.799 46.410,208.167 45.977,208.167 45.563 C 208.167 45.345,208.242 45.167,208.333 45.167 C 208.425 45.167,208.500 45.084,208.500 44.984 C 208.500 44.883,208.620 44.527,208.767 44.192 C 208.914 43.857,209.092 43.433,209.164 43.250 C 209.235 43.067,209.490 42.516,209.730 42.026 C 209.970 41.537,210.167 40.993,210.167 40.818 C 210.167 40.643,210.242 40.500,210.333 40.500 C 210.425 40.500,210.500 40.359,210.500 40.187 C 210.500 40.015,210.612 39.781,210.750 39.667 C 210.887 39.553,211.000 39.281,211.000 39.063 C 211.000 38.845,211.075 38.667,211.167 38.667 C 211.258 38.667,211.333 38.479,211.333 38.250 C 211.333 38.021,211.408 37.833,211.500 37.833 C 211.592 37.833,211.667 37.751,211.667 37.650 C 211.667 37.471,212.042 36.539,212.347 35.961 C 212.431 35.801,212.500 35.528,212.500 35.353 C 212.500 35.179,212.612 34.992,212.750 34.940 C 212.887 34.887,213.000 34.696,213.000 34.515 C 213.000 34.334,213.075 34.140,213.167 34.083 C 213.258 34.027,213.333 33.797,213.333 33.573 C 213.333 33.350,213.408 33.167,213.500 33.167 C 213.592 33.167,213.667 33.011,213.667 32.821 C 213.667 32.632,213.779 32.364,213.917 32.226 C 214.054 32.089,214.167 31.832,214.167 31.655 C 214.167 31.478,214.242 31.333,214.333 31.333 C 214.425 31.333,214.500 31.146,214.500 30.917 C 214.500 30.688,214.575 30.500,214.667 30.500 C 214.758 30.500,214.833 30.322,214.833 30.104 C 214.833 29.886,214.946 29.614,215.083 29.500 C 215.221 29.386,215.333 29.188,215.333 29.061 C 215.333 28.933,215.400 28.699,215.481 28.539 C 215.563 28.380,215.832 27.800,216.079 27.250 C 216.327 26.700,216.598 26.120,216.682 25.961 C 216.765 25.801,216.833 25.520,216.833 25.336 C 216.833 25.151,216.902 25.000,216.987 25.000 C 217.071 25.000,217.190 24.775,217.250 24.500 C 217.310 24.225,217.429 24.000,217.513 24.000 C 217.598 24.000,217.667 23.813,217.667 23.583 L 217.667 23.167 225.584 23.167 L 233.501 23.167 233.459 44.208 L 233.417 65.250 227.583 65.250 L 221.750 65.250 221.707 52.591 C 221.683 45.286,221.600 39.867,221.513 39.780 C 221.349 39.615,220.833 40.471,220.833 40.908 C 220.833 41.050,220.758 41.167,220.667 41.167 C 220.575 41.167,220.500 41.354,220.500 41.583 C 220.500 41.813,220.425 42.000,220.333 42.000 C 220.242 42.000,220.164 42.131,220.161 42.292 C 220.158 42.452,220.046 42.729,219.911 42.907 C 219.777 43.085,219.667 43.366,219.667 43.532 C 219.667 43.698,219.592 43.833,219.500 43.833 C 219.408 43.833,219.333 44.021,219.333 44.250 C 219.333 44.479,219.258 44.667,219.167 44.667 C 219.075 44.667,219.000 44.802,219.000 44.968 C 219.000 45.134,218.890 45.415,218.755 45.593 C 218.621 45.771,218.508 46.048,218.505 46.208 C 218.502 46.369,218.425 46.500,218.333 46.500 C 218.242 46.500,218.167 46.678,218.167 46.896 C 218.167 47.114,218.054 47.386,217.917 47.500 C 217.779 47.614,217.667 47.844,217.667 48.011 C 217.667 48.177,217.592 48.360,217.500 48.417 C 217.408 48.473,217.333 48.665,217.333 48.843 C 217.333 49.021,217.258 49.167,217.167 49.167 C 217.075 49.167,217.000 49.345,217.000 49.563 C 217.000 49.781,216.887 50.053,216.750 50.167 C 216.612 50.281,216.500 50.478,216.500 50.606 C 216.500 50.734,216.434 50.968,216.353 51.127 C 216.272 51.286,216.113 51.642,215.999 51.917 C 215.886 52.192,215.689 52.616,215.563 52.859 C 215.437 53.102,215.333 53.421,215.333 53.567 C 215.333 53.714,215.258 53.833,215.167 53.833 C 215.075 53.833,215.000 54.021,215.000 54.250 C 215.000 54.479,214.925 54.667,214.833 54.667 C 214.742 54.667,214.664 54.798,214.661 54.958 C 214.658 55.119,214.546 55.396,214.411 55.574 C 214.277 55.751,214.167 56.033,214.167 56.199 C 214.167 56.364,214.092 56.500,214.000 56.500 C 213.908 56.500,213.833 56.688,213.833 56.917 C 213.833 57.146,213.766 57.333,213.685 57.333 C 213.603 57.333,213.487 57.529,213.427 57.767 C 213.367 58.006,213.200 58.382,213.055 58.603 L 212.792 59.005 207.531 58.961 L 202.270 58.917 201.904 58.167 C 201.557 57.455,201.240 56.756,200.844 55.831 C 200.747 55.603,200.601 55.304,200.519 55.167 C 200.182 54.599,199.500 53.064,199.500 52.873 C 199.500 52.759,199.425 52.667,199.333 52.667 C 199.242 52.667,199.167 52.479,199.167 52.250 C 199.167 52.021,199.092 51.833,199.000 51.833 C 198.908 51.833,198.833 51.693,198.833 51.520 C 198.833 51.348,198.721 51.114,198.583 51.000 C 198.446 50.886,198.333 50.652,198.333 50.480 C 198.333 50.307,198.258 50.167,198.167 50.167 C 198.075 50.167,198.000 50.021,198.000 49.843 C 198.000 49.665,197.925 49.473,197.833 49.417 C 197.742 49.360,197.667 49.173,197.667 49.002 C 197.667 48.831,197.554 48.578,197.417 48.440 C 197.279 48.303,197.167 48.109,197.167 48.010 C 197.167 47.910,197.100 47.699,197.018 47.539 C 196.937 47.380,196.731 46.950,196.560 46.583 C 196.390 46.217,196.194 45.892,196.125 45.861 C 196.056 45.831,196.000 45.698,196.000 45.567 C 196.000 45.436,195.929 45.199,195.843 45.039 C 195.757 44.880,195.555 44.431,195.394 44.042 C 195.234 43.652,195.042 43.333,194.968 43.333 C 194.894 43.333,194.833 43.146,194.833 42.917 C 194.833 42.688,194.758 42.500,194.667 42.500 C 194.575 42.500,194.500 42.412,194.500 42.305 C 194.500 42.197,194.369 41.824,194.208 41.476 C 193.514 39.967,193.500 40.191,193.500 52.997 L 193.500 65.160 193.125 65.252 C 192.919 65.302,190.237 65.322,187.167 65.297 L 181.583 65.250 181.541 44.208 L 181.499 23.167 189.278 23.167 C 196.283 23.167,197.087 23.194,197.362 23.442 M253.566 23.430 C 253.800 24.042,253.676 64.951,253.439 65.148 C 253.276 65.284,251.462 65.325,247.064 65.294 L 240.917 65.250 240.874 44.208 L 240.832 23.167 247.148 23.167 C 252.754 23.167,253.476 23.196,253.566 23.430 M318.667 30.529 C 318.667 37.145,318.695 37.921,318.942 38.195 C 319.221 38.503,333.474 38.691,334.239 38.398 C 334.479 38.306,334.505 37.531,334.497 30.892 C 334.491 26.821,334.532 23.417,334.587 23.328 C 334.648 23.229,337.112 23.167,341.010 23.167 L 347.335 23.167 347.292 44.208 L 347.250 65.250 341.201 65.294 C 337.221 65.323,335.041 65.278,334.826 65.163 C 334.510 64.993,334.500 64.762,334.500 57.277 C 334.500 51.502,334.450 49.516,334.300 49.367 C 333.918 48.985,319.288 49.090,318.938 49.477 C 318.683 49.758,318.659 50.485,318.672 57.394 C 318.680 61.577,318.640 65.075,318.583 65.167 C 318.425 65.424,306.458 65.391,306.200 65.133 C 305.982 64.915,305.894 23.495,306.111 23.278 C 306.172 23.217,309.022 23.167,312.444 23.167 L 318.667 23.167 318.667 30.529 M391.794 28.290 L 391.838 33.330 384.961 33.373 L 378.083 33.417 378.000 49.333 L 377.917 65.250 371.785 65.294 C 367.718 65.323,365.542 65.278,365.324 65.162 C 365.000 64.988,364.995 64.744,365.003 49.201 L 365.010 33.417 358.297 33.333 L 351.583 33.250 351.539 28.419 C 351.515 25.761,351.531 23.492,351.576 23.376 C 351.641 23.207,355.652 23.174,371.703 23.208 L 391.750 23.250 391.794 28.290 M102.833 23.484 C 102.833 23.566,102.590 23.727,102.292 23.840 C 101.842 24.011,101.806 24.060,102.077 24.126 C 102.257 24.169,102.432 24.121,102.466 24.019 C 102.500 23.917,102.747 23.833,103.014 23.833 C 103.335 23.833,103.500 23.748,103.500 23.583 C 103.500 23.444,103.352 23.333,103.167 23.333 C 102.983 23.333,102.833 23.401,102.833 23.484 M120.667 23.572 C 120.667 23.709,120.863 23.834,121.125 23.864 C 121.776 23.939,121.899 26.000,121.252 26.000 C 120.902 26.000,120.775 26.321,121.079 26.438 C 121.823 26.724,122.374 24.677,121.827 23.656 C 121.619 23.266,120.667 23.198,120.667 23.572 M101.167 24.333 C 101.167 24.425,101.279 24.500,101.417 24.500 C 101.554 24.500,101.667 24.425,101.667 24.333 C 101.667 24.242,101.554 24.167,101.417 24.167 C 101.279 24.167,101.167 24.242,101.167 24.333 M100.440 24.750 C 100.374 24.920,100.449 25.000,100.672 25.000 C 100.852 25.000,101.000 24.888,101.000 24.750 C 101.000 24.613,100.896 24.500,100.768 24.500 C 100.640 24.500,100.492 24.613,100.440 24.750 M109.000 24.711 C 109.000 24.873,109.606 24.922,111.583 24.920 C 113.537 24.917,114.167 24.866,114.167 24.708 C 114.167 24.551,113.539 24.500,111.583 24.500 C 109.608 24.500,109.000 24.550,109.000 24.711 M53.890 24.927 C 53.765 25.253,53.915 25.402,54.243 25.276 C 54.573 25.149,54.573 24.897,54.244 24.771 C 54.096 24.714,53.946 24.780,53.890 24.927 M106.449 24.940 C 106.205 25.184,106.574 25.333,107.417 25.333 C 108.310 25.333,108.735 25.126,108.235 24.934 C 107.887 24.801,106.584 24.805,106.449 24.940 M115.118 24.937 C 114.815 25.240,115.082 25.345,116.042 25.300 C 116.628 25.272,117.066 25.177,117.044 25.083 C 116.997 24.890,115.295 24.761,115.118 24.937 M99.356 25.409 C 99.139 25.622,98.764 25.899,98.523 26.023 C 98.069 26.255,97.334 26.988,97.334 27.208 C 97.333 27.277,97.253 27.333,97.154 27.333 C 96.912 27.333,95.677 28.694,95.671 28.966 C 95.669 29.084,95.479 29.383,95.250 29.631 C 95.021 29.878,94.833 30.174,94.833 30.290 C 94.833 30.405,94.758 30.500,94.667 30.500 C 94.575 30.500,94.500 30.650,94.500 30.833 C 94.500 31.017,94.425 31.167,94.333 31.167 C 94.242 31.167,94.167 31.346,94.167 31.566 C 94.167 31.785,94.066 32.003,93.943 32.050 C 93.674 32.153,93.696 32.871,93.971 32.963 C 94.086 33.001,94.167 32.854,94.167 32.607 C 94.167 32.376,94.242 32.140,94.333 32.083 C 94.425 32.027,94.500 31.843,94.500 31.675 C 94.500 31.507,94.612 31.326,94.750 31.273 C 94.888 31.220,95.000 31.025,95.000 30.839 C 95.000 30.652,95.075 30.500,95.167 30.500 C 95.258 30.500,95.333 30.350,95.333 30.167 C 95.333 29.983,95.408 29.833,95.500 29.833 C 95.592 29.833,95.667 29.721,95.667 29.583 C 95.667 29.446,95.779 29.333,95.917 29.333 C 96.057 29.333,96.167 29.184,96.167 28.992 C 96.167 28.645,97.674 27.000,97.992 27.000 C 98.088 27.000,98.167 26.920,98.167 26.821 C 98.167 26.551,98.607 26.167,98.917 26.167 C 99.226 26.167,99.667 25.782,99.667 25.512 C 99.667 25.414,99.821 25.333,100.010 25.333 C 100.199 25.333,100.307 25.258,100.250 25.167 C 100.088 24.905,99.783 24.987,99.356 25.409 M38.667 45.417 L 38.667 65.667 37.583 65.667 C 36.511 65.667,36.151 65.868,36.875 66.062 C 37.592 66.254,38.506 66.177,38.606 65.917 C 38.659 65.779,38.806 65.667,38.932 65.667 C 39.171 65.667,39.298 26.417,39.062 25.542 C 38.720 24.272,38.667 26.939,38.667 45.417 M104.833 25.500 C 104.833 25.592,105.058 25.667,105.333 25.667 C 105.608 25.667,105.833 25.592,105.833 25.500 C 105.833 25.408,105.608 25.333,105.333 25.333 C 105.058 25.333,104.833 25.408,104.833 25.500 M117.667 25.500 C 117.667 25.592,118.009 25.667,118.427 25.667 C 118.891 25.667,119.146 25.602,119.083 25.500 C 119.027 25.408,118.685 25.333,118.323 25.333 C 117.962 25.333,117.667 25.408,117.667 25.500 M103.833 25.917 C 103.833 26.186,103.986 26.226,104.403 26.066 C 104.809 25.910,104.715 25.667,104.250 25.667 C 103.991 25.667,103.833 25.761,103.833 25.917 M119.574 25.922 C 119.999 26.244,120.667 26.241,120.667 25.917 C 120.667 25.733,120.479 25.668,119.958 25.672 C 119.299 25.677,119.273 25.694,119.574 25.922 M102.949 26.107 C 102.793 26.262,102.981 26.500,103.260 26.500 C 103.392 26.500,103.500 26.387,103.500 26.250 C 103.500 25.999,103.148 25.907,102.949 26.107 M102.167 26.667 C 102.167 26.758,102.275 26.833,102.407 26.833 C 102.539 26.833,102.693 26.758,102.750 26.667 C 102.807 26.575,102.699 26.500,102.510 26.500 C 102.321 26.500,102.167 26.575,102.167 26.667 M101.500 27.072 C 101.500 27.203,101.331 27.340,101.125 27.376 C 100.811 27.431,100.795 27.462,101.026 27.566 C 101.199 27.644,101.432 27.579,101.651 27.391 C 102.062 27.040,102.098 26.833,101.750 26.833 C 101.612 26.833,101.500 26.941,101.500 27.072 M100.333 27.833 C 100.333 27.925,100.221 28.000,100.083 28.000 C 99.946 28.000,99.833 28.064,99.833 28.142 C 99.833 28.220,99.601 28.527,99.316 28.825 C 98.940 29.219,98.849 29.416,98.983 29.550 C 99.117 29.683,99.167 29.673,99.167 29.511 C 99.167 29.287,99.977 28.501,100.208 28.500 C 100.277 28.500,100.333 28.415,100.333 28.310 C 100.333 28.206,100.465 28.020,100.625 27.899 C 100.903 27.688,100.903 27.677,100.625 27.672 C 100.465 27.669,100.333 27.742,100.333 27.833 M98.287 29.835 C 98.129 30.020,98.000 30.245,98.000 30.335 C 98.000 30.426,97.925 30.500,97.833 30.500 C 97.742 30.500,97.667 30.650,97.667 30.833 C 97.667 31.019,97.556 31.167,97.417 31.167 C 97.278 31.167,97.167 31.315,97.167 31.500 C 97.167 31.683,97.092 31.833,97.000 31.833 C 96.908 31.833,96.833 31.946,96.833 32.083 C 96.833 32.221,96.908 32.333,97.000 32.333 C 97.092 32.333,97.167 32.253,97.167 32.156 C 97.167 32.058,97.354 31.732,97.583 31.431 C 97.813 31.131,98.000 30.826,98.000 30.753 C 98.000 30.681,98.188 30.448,98.417 30.235 C 98.823 29.858,98.963 29.500,98.704 29.500 C 98.632 29.500,98.445 29.651,98.287 29.835 M96.500 33.083 C 96.500 33.343,96.406 33.500,96.250 33.500 C 96.094 33.500,96.000 33.657,96.000 33.917 C 96.000 34.486,96.440 34.453,96.549 33.875 C 96.597 33.623,96.689 33.248,96.754 33.042 C 96.828 32.806,96.803 32.667,96.686 32.667 C 96.584 32.667,96.500 32.854,96.500 33.083 M93.333 33.667 C 93.333 34.159,93.547 34.328,93.751 33.999 C 93.885 33.781,93.691 33.167,93.489 33.167 C 93.403 33.167,93.333 33.392,93.333 33.667 M93.000 34.917 C 93.000 35.237,93.075 35.500,93.167 35.500 C 93.258 35.500,93.333 35.237,93.333 34.917 C 93.333 34.596,93.258 34.333,93.167 34.333 C 93.075 34.333,93.000 34.596,93.000 34.917 M95.667 35.250 C 95.667 35.571,95.742 35.833,95.833 35.833 C 95.925 35.833,96.000 35.571,96.000 35.250 C 96.000 34.929,95.925 34.667,95.833 34.667 C 95.742 34.667,95.667 34.929,95.667 35.250 M92.601 35.930 C 92.403 36.445,92.490 37.167,92.750 37.167 C 92.935 37.167,93.000 36.972,93.000 36.417 C 93.000 35.673,92.796 35.424,92.601 35.930 M95.294 36.202 C 95.187 36.521,95.356 37.172,95.519 37.072 C 95.715 36.951,95.710 36.000,95.514 36.000 C 95.430 36.000,95.331 36.091,95.294 36.202 M94.833 38.736 C 94.833 39.818,95.067 40.206,95.258 39.442 C 95.408 38.846,95.276 37.784,95.042 37.707 C 94.889 37.657,94.833 37.933,94.833 38.736 M92.288 37.934 C 92.111 38.111,92.139 40.000,92.319 40.000 C 92.541 40.000,92.693 38.826,92.540 38.281 C 92.468 38.024,92.355 37.867,92.288 37.934 M91.833 44.333 C 91.833 46.667,91.894 48.000,92.000 48.000 C 92.106 48.000,92.167 46.667,92.167 44.333 C 92.167 42.000,92.106 40.667,92.000 40.667 C 91.894 40.667,91.833 42.000,91.833 44.333 M94.500 44.240 C 94.500 45.897,94.566 47.167,94.652 47.167 C 94.871 47.167,94.891 41.555,94.673 41.421 C 94.556 41.348,94.500 42.261,94.500 44.240 M62.607 42.415 C 62.523 42.634,63.776 42.669,72.964 42.707 L 83.417 42.750 83.415 43.789 C 83.414 44.472,83.486 44.856,83.623 44.909 C 83.782 44.970,83.833 44.644,83.833 43.578 L 83.833 42.167 73.268 42.167 C 64.054 42.167,62.690 42.198,62.607 42.415 M287.667 44.458 C 287.667 44.527,289.084 44.583,290.817 44.583 C 292.549 44.583,293.932 44.527,293.890 44.458 C 293.848 44.390,292.431 44.333,290.740 44.333 C 289.050 44.333,287.667 44.390,287.667 44.458 M295.109 44.458 C 295.067 44.527,295.475 44.583,296.016 44.583 C 296.557 44.583,297.000 44.527,297.000 44.458 C 297.000 44.390,296.592 44.333,296.093 44.333 C 295.594 44.333,295.152 44.390,295.109 44.458 M298.230 44.533 C 298.165 44.638,298.190 44.672,298.289 44.611 C 298.628 44.401,298.662 45.361,298.664 55.042 L 298.667 64.833 298.260 64.833 C 298.036 64.833,297.813 64.899,297.763 64.979 C 297.714 65.059,297.040 65.158,296.265 65.198 C 295.491 65.239,294.758 65.352,294.637 65.450 C 294.512 65.550,293.562 65.636,292.448 65.647 C 291.365 65.657,290.339 65.741,290.167 65.833 C 289.996 65.925,289.485 66.000,289.032 66.000 C 288.013 66.000,287.167 66.161,287.167 66.354 C 287.167 66.560,291.123 66.539,291.250 66.333 C 291.308 66.240,292.109 66.167,293.081 66.167 C 294.395 66.167,294.869 66.107,295.060 65.917 C 295.237 65.739,295.671 65.667,296.562 65.667 C 297.250 65.667,297.860 65.592,297.917 65.500 C 297.973 65.408,298.278 65.333,298.594 65.333 L 299.169 65.333 299.126 54.977 L 299.083 44.621 298.714 44.485 C 298.481 44.399,298.302 44.417,298.230 44.533 M259.167 47.407 C 259.167 48.609,259.237 49.524,259.333 49.583 C 259.425 49.640,259.500 50.059,259.500 50.515 C 259.500 51.098,259.574 51.372,259.750 51.440 C 259.913 51.502,260.000 51.762,260.000 52.184 C 260.000 52.541,260.075 52.833,260.167 52.833 C 260.258 52.833,260.333 53.054,260.333 53.323 C 260.333 53.593,260.408 53.860,260.500 53.917 C 260.592 53.973,260.667 54.157,260.667 54.325 C 260.667 54.493,260.779 54.674,260.917 54.727 C 261.054 54.780,261.167 54.975,261.167 55.161 C 261.167 55.348,261.242 55.500,261.333 55.500 C 261.425 55.500,261.502 55.631,261.505 55.792 C 261.512 56.152,261.887 56.667,262.143 56.667 C 262.248 56.667,262.333 56.838,262.333 57.047 C 262.333 57.255,262.483 57.535,262.667 57.667 C 262.850 57.799,263.000 57.996,263.000 58.105 C 263.000 58.340,265.103 60.500,265.331 60.500 C 265.417 60.500,265.784 60.800,266.147 61.167 C 266.510 61.533,266.926 61.833,267.070 61.833 C 267.215 61.833,267.333 61.908,267.333 62.000 C 267.333 62.092,267.446 62.167,267.583 62.167 C 267.721 62.167,267.833 62.236,267.833 62.321 C 267.833 62.499,268.775 63.000,269.109 63.000 C 269.232 63.000,269.333 63.075,269.333 63.167 C 269.333 63.258,269.515 63.333,269.736 63.333 C 269.958 63.333,270.167 63.416,270.200 63.518 C 270.268 63.719,271.410 64.160,271.875 64.164 C 272.035 64.166,272.167 64.242,272.167 64.333 C 272.167 64.425,272.429 64.500,272.750 64.500 C 273.157 64.500,273.333 64.575,273.333 64.750 C 273.333 64.935,273.528 65.000,274.083 65.000 C 274.496 65.000,274.833 65.075,274.833 65.167 C 274.833 65.258,275.208 65.333,275.667 65.333 C 276.125 65.333,276.500 65.408,276.500 65.500 C 276.500 65.592,276.918 65.667,277.429 65.667 C 278.032 65.667,278.445 65.754,278.607 65.917 C 278.796 66.105,279.262 66.167,280.502 66.167 C 281.419 66.167,282.193 66.240,282.250 66.333 C 282.379 66.543,284.167 66.555,284.167 66.347 C 284.167 66.262,283.923 66.140,283.625 66.076 C 283.327 66.011,283.042 65.894,282.992 65.815 C 282.941 65.736,282.116 65.654,281.158 65.634 C 280.140 65.612,279.244 65.508,279.000 65.383 C 278.771 65.265,278.152 65.168,277.625 65.168 C 277.098 65.167,276.667 65.092,276.667 65.000 C 276.667 64.908,276.334 64.833,275.927 64.833 C 275.519 64.833,275.140 64.758,275.083 64.667 C 275.027 64.575,274.731 64.500,274.427 64.500 C 274.123 64.500,273.781 64.387,273.667 64.250 C 273.553 64.112,273.206 64.000,272.896 64.000 C 272.587 64.000,272.333 63.925,272.333 63.833 C 272.333 63.742,272.146 63.667,271.917 63.667 C 271.688 63.667,271.500 63.592,271.500 63.500 C 271.500 63.408,271.418 63.333,271.317 63.333 C 271.059 63.333,269.265 62.537,268.583 62.120 C 267.718 61.592,266.148 60.459,265.706 60.044 C 265.435 59.791,264.997 59.389,264.732 59.151 C 263.498 58.042,261.167 54.473,261.167 53.692 C 261.167 53.586,261.092 53.500,261.000 53.500 C 260.908 53.500,260.833 53.279,260.833 53.010 C 260.833 52.740,260.758 52.473,260.667 52.417 C 260.575 52.360,260.500 52.126,260.500 51.896 C 260.500 51.666,260.414 51.317,260.308 51.120 C 260.203 50.922,260.091 50.463,260.060 50.099 C 260.029 49.735,259.928 49.361,259.835 49.269 C 259.743 49.176,259.667 48.371,259.667 47.480 C 259.667 45.838,259.584 45.333,259.316 45.333 C 259.234 45.333,259.167 46.266,259.167 47.407 M94.839 49.458 C 94.834 50.593,94.879 50.833,95.092 50.833 C 95.422 50.833,95.398 48.812,95.062 48.371 C 94.877 48.126,94.843 48.289,94.839 49.458 M92.167 49.573 C 92.167 50.164,92.233 50.688,92.315 50.739 C 92.529 50.871,92.701 49.768,92.572 49.083 C 92.395 48.138,92.167 48.414,92.167 49.573 M95.333 51.917 C 95.333 52.237,95.408 52.500,95.500 52.500 C 95.592 52.500,95.667 52.237,95.667 51.917 C 95.667 51.596,95.592 51.333,95.500 51.333 C 95.408 51.333,95.333 51.596,95.333 51.917 M92.532 52.112 C 92.606 52.991,93.000 53.049,93.000 52.181 C 93.000 51.675,92.933 51.500,92.740 51.500 C 92.542 51.500,92.492 51.646,92.532 52.112 M95.667 53.240 C 95.667 53.566,95.742 53.833,95.833 53.833 C 95.925 53.833,96.000 53.613,96.000 53.343 C 96.000 53.074,95.925 52.807,95.833 52.750 C 95.734 52.689,95.667 52.887,95.667 53.240 M93.000 53.750 C 93.000 54.071,93.075 54.333,93.167 54.333 C 93.258 54.333,93.333 54.071,93.333 53.750 C 93.333 53.429,93.258 53.167,93.167 53.167 C 93.075 53.167,93.000 53.429,93.000 53.750 M96.000 54.486 C 96.000 54.837,96.081 55.000,96.256 55.000 C 96.437 55.000,96.494 54.870,96.451 54.551 C 96.365 53.906,96.000 53.853,96.000 54.486 M93.333 55.000 C 93.333 55.275,93.403 55.500,93.489 55.500 C 93.691 55.500,93.885 54.885,93.751 54.668 C 93.547 54.338,93.333 54.508,93.333 55.000 M96.500 55.583 C 96.500 55.813,96.575 56.000,96.667 56.000 C 96.758 56.000,96.833 56.188,96.833 56.417 C 96.833 56.646,96.908 56.833,97.000 56.833 C 97.092 56.833,97.167 56.983,97.167 57.167 C 97.167 57.352,97.278 57.500,97.417 57.500 C 97.554 57.500,97.667 57.612,97.667 57.750 C 97.667 57.887,97.742 58.000,97.833 58.000 C 97.925 58.000,98.000 58.112,98.000 58.250 C 98.000 58.387,98.075 58.500,98.167 58.500 C 98.258 58.500,98.333 58.387,98.333 58.250 C 98.333 58.112,98.258 58.000,98.167 58.000 C 98.075 58.000,98.000 57.887,98.000 57.750 C 98.000 57.612,97.925 57.500,97.833 57.500 C 97.742 57.500,97.667 57.348,97.667 57.161 C 97.667 56.975,97.554 56.780,97.417 56.727 C 97.279 56.674,97.167 56.489,97.167 56.316 C 97.167 56.142,97.092 56.000,97.000 56.000 C 96.908 56.000,96.833 55.813,96.833 55.583 C 96.833 55.354,96.758 55.167,96.667 55.167 C 96.575 55.167,96.500 55.354,96.500 55.583 M93.768 55.804 C 93.648 55.999,93.842 56.667,94.019 56.667 C 94.100 56.667,94.167 56.854,94.167 57.083 C 94.167 57.313,94.234 57.500,94.315 57.500 C 94.397 57.500,94.511 57.688,94.568 57.917 C 94.626 58.146,94.751 58.333,94.846 58.333 C 94.942 58.333,94.979 58.399,94.930 58.478 C 94.881 58.558,94.992 58.799,95.178 59.013 C 95.363 59.227,95.679 59.667,95.879 59.991 C 96.364 60.775,98.303 62.685,98.420 62.494 C 98.471 62.412,97.966 61.798,97.298 61.131 C 96.630 60.464,96.101 59.865,96.123 59.799 C 96.145 59.733,95.976 59.478,95.748 59.232 C 95.520 58.986,95.333 58.646,95.333 58.476 C 95.333 58.306,95.258 58.167,95.167 58.167 C 95.075 58.167,95.000 58.052,95.000 57.911 C 95.000 57.771,94.888 57.613,94.750 57.560 C 94.612 57.508,94.500 57.285,94.500 57.066 C 94.500 56.846,94.425 56.667,94.333 56.667 C 94.242 56.667,94.167 56.442,94.167 56.167 C 94.167 55.694,93.955 55.502,93.768 55.804 M98.448 58.774 C 98.275 58.947,98.310 59.167,98.512 59.167 C 98.706 59.167,99.167 59.577,99.167 59.750 C 99.167 59.889,99.611 60.333,99.750 60.333 C 99.929 60.333,100.333 60.797,100.333 61.002 C 100.333 61.108,100.422 61.165,100.531 61.128 C 100.799 61.039,100.910 60.667,100.669 60.667 C 100.427 60.667,100.000 60.249,100.000 60.012 C 100.000 59.914,99.934 59.833,99.852 59.833 C 99.771 59.833,99.448 59.569,99.134 59.246 C 98.820 58.923,98.512 58.710,98.448 58.774 M101.042 61.110 C 100.715 61.242,100.798 61.500,101.167 61.500 C 101.350 61.500,101.500 61.575,101.500 61.667 C 101.500 61.758,101.642 61.833,101.816 61.833 C 101.989 61.833,102.176 61.951,102.231 62.095 C 102.298 62.269,102.444 62.321,102.666 62.250 C 102.903 62.175,103.000 62.220,103.000 62.405 C 103.000 62.573,103.149 62.667,103.417 62.667 C 103.646 62.667,103.833 62.742,103.833 62.833 C 103.833 62.925,104.138 63.000,104.510 63.000 C 104.918 63.000,105.146 62.934,105.083 62.833 C 105.027 62.742,104.722 62.667,104.407 62.667 C 104.008 62.667,103.833 62.590,103.833 62.417 C 103.833 62.261,103.676 62.167,103.417 62.167 C 103.188 62.167,103.000 62.092,103.000 62.000 C 103.000 61.908,102.854 61.833,102.677 61.833 C 102.499 61.833,102.307 61.758,102.250 61.667 C 102.193 61.575,102.001 61.500,101.823 61.500 C 101.646 61.500,101.500 61.387,101.500 61.250 C 101.500 60.993,101.404 60.964,101.042 61.110 M120.500 61.986 C 120.500 62.080,120.744 62.220,121.042 62.297 C 122.049 62.556,121.924 64.500,120.900 64.500 C 120.194 64.500,120.189 64.887,120.893 64.970 C 121.669 65.062,122.004 64.467,121.957 63.083 L 121.917 61.917 121.208 61.865 C 120.801 61.836,120.500 61.887,120.500 61.986 M119.333 62.417 C 119.333 62.583,119.500 62.667,119.833 62.667 C 120.368 62.667,120.505 62.435,120.070 62.268 C 119.623 62.096,119.333 62.155,119.333 62.417 M98.500 62.750 C 98.500 62.903,98.581 63.001,98.679 62.968 C 98.778 62.935,98.858 62.837,98.858 62.750 C 98.858 62.663,98.778 62.565,98.679 62.532 C 98.581 62.499,98.500 62.597,98.500 62.750 M117.750 62.833 C 117.688 62.934,117.915 63.000,118.323 63.000 C 118.696 63.000,119.000 62.925,119.000 62.833 C 119.000 62.742,118.742 62.667,118.427 62.667 C 118.111 62.667,117.807 62.742,117.750 62.833 M99.375 63.232 C 99.535 63.354,99.667 63.532,99.667 63.629 C 99.667 63.820,100.082 63.806,100.280 63.609 C 100.347 63.542,100.237 63.444,100.034 63.391 C 99.832 63.338,99.667 63.228,99.667 63.147 C 99.667 63.066,99.535 63.002,99.375 63.005 C 99.097 63.010,99.097 63.021,99.375 63.232 M105.375 63.208 C 105.413 63.323,105.694 63.417,106.000 63.417 C 106.306 63.417,106.587 63.323,106.625 63.208 C 106.673 63.064,106.481 63.000,106.000 63.000 C 105.519 63.000,105.327 63.064,105.375 63.208 M115.928 63.148 C 115.828 63.310,116.370 63.494,116.958 63.498 C 117.182 63.499,117.333 63.399,117.333 63.250 C 117.333 62.972,116.093 62.881,115.928 63.148 M107.417 63.471 C 107.115 63.773,107.766 63.833,111.347 63.833 C 114.484 63.833,115.346 63.788,115.292 63.625 C 115.222 63.418,107.620 63.269,107.417 63.471 M100.444 63.778 C 100.235 63.987,100.333 64.167,100.657 64.167 C 100.835 64.167,101.027 64.242,101.083 64.333 C 101.140 64.425,101.294 64.500,101.427 64.500 C 101.559 64.500,101.667 64.425,101.667 64.333 C 101.667 64.242,101.525 64.167,101.351 64.167 C 101.178 64.167,100.992 64.054,100.940 63.917 C 100.838 63.652,100.629 63.593,100.444 63.778 M101.943 64.758 C 102.056 65.054,102.521 65.020,102.625 64.708 C 102.668 64.578,102.535 64.500,102.269 64.500 C 101.954 64.500,101.869 64.567,101.943 64.758 M102.833 65.167 C 102.833 65.258,103.058 65.333,103.333 65.333 C 103.608 65.333,103.833 65.258,103.833 65.167 C 103.833 65.075,103.608 65.000,103.333 65.000 C 103.058 65.000,102.833 65.075,102.833 65.167 M119.000 65.167 C 119.000 65.258,119.225 65.333,119.500 65.333 C 119.775 65.333,120.000 65.258,120.000 65.167 C 120.000 65.075,119.775 65.000,119.500 65.000 C 119.225 65.000,119.000 65.075,119.000 65.167 M104.000 65.500 C 104.000 65.592,104.300 65.667,104.667 65.667 C 105.033 65.667,105.333 65.592,105.333 65.500 C 105.333 65.408,105.033 65.333,104.667 65.333 C 104.300 65.333,104.000 65.408,104.000 65.500 M117.167 65.500 C 117.167 65.592,117.467 65.667,117.833 65.667 C 118.200 65.667,118.500 65.592,118.500 65.500 C 118.500 65.408,118.200 65.333,117.833 65.333 C 117.467 65.333,117.167 65.408,117.167 65.500 M105.541 65.875 C 105.650 66.207,107.500 66.254,107.500 65.925 C 107.500 65.720,107.291 65.667,106.486 65.667 C 105.749 65.667,105.491 65.724,105.541 65.875 M114.833 65.925 C 114.833 66.134,115.014 66.174,115.778 66.133 C 117.135 66.062,117.194 65.667,115.847 65.667 C 115.043 65.667,114.833 65.720,114.833 65.925 M108.250 66.333 C 108.312 66.434,109.471 66.500,111.167 66.500 C 112.863 66.500,114.021 66.434,114.083 66.333 C 114.151 66.225,113.137 66.167,111.167 66.167 C 109.196 66.167,108.183 66.225,108.250 66.333 " stroke="none" fill="#93fcbc" fill-rule="evenodd"></path><path id="path3" d="M253.126 44.106 C 253.158 59.115,253.119 64.606,252.981 64.773 C 252.835 64.949,252.854 65.000,253.063 65.000 C 253.311 65.000,253.333 63.286,253.333 44.333 C 253.333 32.967,253.277 23.667,253.208 23.667 C 253.140 23.667,253.103 32.865,253.126 44.106 M296.391 23.856 C 296.612 23.984,296.751 23.982,296.883 23.851 C 297.017 23.716,296.934 23.668,296.575 23.672 C 296.144 23.676,296.121 23.699,296.391 23.856 M391.333 28.250 C 391.333 30.908,391.397 32.833,391.486 32.833 C 391.574 32.833,391.647 30.893,391.659 28.250 C 391.672 25.181,391.622 23.667,391.506 23.667 C 391.391 23.667,391.333 25.194,391.333 28.250 M284.877 32.786 C 285.131 32.825,285.506 32.824,285.711 32.784 C 285.916 32.744,285.708 32.713,285.250 32.714 C 284.792 32.716,284.624 32.748,284.877 32.786 M291.042 32.788 C 291.385 32.824,291.948 32.824,292.292 32.788 C 292.635 32.752,292.354 32.723,291.667 32.723 C 290.979 32.723,290.698 32.752,291.042 32.788 M377.667 49.333 C 377.621 57.904,377.602 64.948,377.625 64.986 C 377.806 65.288,377.830 63.050,377.793 49.319 L 377.750 33.750 377.667 49.333 M322.875 38.792 C 324.960 38.818,328.373 38.818,330.458 38.792 C 332.544 38.765,330.837 38.743,326.667 38.743 C 322.496 38.743,320.790 38.765,322.875 38.792 M272.375 44.750 C 272.377 45.117,272.411 45.247,272.451 45.040 C 272.491 44.832,272.490 44.532,272.448 44.373 C 272.406 44.214,272.374 44.383,272.375 44.750 M298.296 54.770 C 298.329 61.680,298.290 64.268,298.150 64.436 C 298.001 64.616,298.018 64.667,298.230 64.667 C 298.476 64.667,298.500 63.806,298.500 55.000 C 298.500 49.683,298.444 45.333,298.375 45.333 C 298.306 45.333,298.271 49.580,298.296 54.770 M16.292 75.624 C 16.956 75.655,18.044 75.655,18.708 75.624 C 19.373 75.592,18.829 75.566,17.500 75.566 C 16.171 75.566,15.627 75.592,16.292 75.624 M38.055 75.625 C 43.997 75.649,53.672 75.649,59.555 75.625 C 65.437 75.601,60.575 75.581,48.750 75.581 C 36.925 75.581,32.112 75.601,38.055 75.625 M76.708 75.624 C 77.327 75.656,78.340 75.656,78.958 75.624 C 79.577 75.592,79.071 75.565,77.833 75.565 C 76.596 75.565,76.090 75.592,76.708 75.624 M127.804 75.625 C 130.400 75.651,134.600 75.651,137.137 75.625 C 139.674 75.599,137.550 75.578,132.417 75.578 C 127.283 75.578,125.207 75.599,127.804 75.625 M149.448 75.625 C 151.023 75.652,153.648 75.652,155.281 75.625 C 156.914 75.597,155.625 75.575,152.417 75.575 C 149.208 75.575,147.872 75.597,149.448 75.625 M162.717 75.624 C 163.523 75.655,164.798 75.655,165.550 75.624 C 166.302 75.593,165.642 75.568,164.083 75.568 C 162.525 75.568,161.910 75.594,162.717 75.624 M167.792 75.618 C 167.998 75.657,168.335 75.657,168.542 75.618 C 168.748 75.578,168.579 75.545,168.167 75.545 C 167.754 75.545,167.585 75.578,167.792 75.618 " stroke="none" fill="#49f68c" fill-rule="evenodd"></path><path id="path4" d="M8.541 27.541 L 8.582 45.083 8.625 27.625 L 8.668 10.166 90.209 10.208 L 171.750 10.250 171.750 44.167 L 171.750 78.083 90.209 78.125 L 8.668 78.167 8.625 63.042 L 8.582 47.917 8.541 63.292 L 8.500 78.667 90.417 78.667 L 172.333 78.667 172.333 44.334 L 172.333 10.001 90.417 10.000 L 8.500 9.999 8.541 27.541 M11.077 12.708 C 11.033 12.823,11.017 20.529,11.040 29.833 L 11.083 46.750 11.167 29.625 C 11.213 20.206,11.229 12.500,11.203 12.500 C 11.177 12.500,11.120 12.594,11.077 12.708 M169.272 13.042 C 169.216 13.248,169.170 27.385,169.169 44.458 C 169.168 61.531,169.110 75.510,169.042 75.522 C 168.973 75.534,133.425 75.556,90.046 75.572 C 46.668 75.588,11.129 75.649,11.071 75.706 C 11.014 75.764,11.016 75.891,11.076 75.989 C 11.195 76.181,168.904 76.257,169.403 76.066 C 169.703 75.950,169.819 12.667,169.519 12.667 C 169.438 12.667,169.327 12.835,169.272 13.042 M109.269 22.406 C 109.339 22.588,109.185 22.660,108.639 22.703 C 108.242 22.735,109.529 22.760,111.500 22.759 C 113.471 22.758,114.573 22.733,113.950 22.704 C 113.150 22.667,112.790 22.580,112.724 22.409 C 112.651 22.219,112.261 22.167,110.904 22.167 C 109.470 22.167,109.193 22.207,109.269 22.406 M106.599 22.731 C 106.686 22.959,106.559 23.000,105.768 23.000 C 105.254 23.000,104.833 23.075,104.833 23.167 C 104.833 23.258,104.533 23.333,104.167 23.333 C 103.685 23.333,103.500 23.403,103.500 23.583 C 103.500 23.750,103.333 23.833,103.000 23.833 C 102.725 23.833,102.500 23.908,102.500 24.000 C 102.500 24.092,102.313 24.167,102.083 24.167 C 101.854 24.167,101.667 24.242,101.667 24.333 C 101.667 24.425,101.517 24.500,101.333 24.500 C 101.148 24.500,101.000 24.611,101.000 24.750 C 101.000 24.907,100.841 25.000,100.573 25.000 C 100.332 25.000,100.192 25.072,100.250 25.167 C 100.307 25.258,100.199 25.333,100.010 25.333 C 99.821 25.333,99.667 25.414,99.667 25.512 C 99.667 25.782,99.226 26.167,98.917 26.167 C 98.607 26.167,98.167 26.551,98.167 26.821 C 98.167 26.920,98.088 27.000,97.992 27.000 C 97.674 27.000,96.167 28.645,96.167 28.992 C 96.167 29.184,96.057 29.333,95.917 29.333 C 95.779 29.333,95.667 29.446,95.667 29.583 C 95.667 29.721,95.592 29.833,95.500 29.833 C 95.408 29.833,95.333 29.983,95.333 30.167 C 95.333 30.350,95.258 30.500,95.167 30.500 C 95.075 30.500,95.000 30.652,95.000 30.839 C 95.000 31.025,94.888 31.220,94.750 31.273 C 94.612 31.326,94.500 31.507,94.500 31.675 C 94.500 31.843,94.425 32.027,94.333 32.083 C 94.242 32.140,94.167 32.377,94.167 32.611 C 94.167 32.933,94.102 33.011,93.898 32.932 C 93.670 32.845,93.646 32.920,93.739 33.417 C 93.823 33.865,93.788 34.028,93.591 34.103 C 93.420 34.169,93.333 34.419,93.333 34.851 C 93.333 35.208,93.258 35.500,93.167 35.500 C 93.075 35.500,93.000 35.875,93.000 36.333 C 93.000 36.956,92.938 37.167,92.755 37.167 C 92.556 37.167,92.516 37.424,92.546 38.528 C 92.573 39.495,92.523 39.909,92.375 39.958 C 92.216 40.011,92.167 41.020,92.167 44.250 C 92.167 47.479,92.216 48.489,92.375 48.542 C 92.524 48.592,92.573 49.023,92.548 50.056 C 92.520 51.227,92.559 51.500,92.757 51.500 C 92.938 51.500,93.000 51.714,93.000 52.333 C 93.000 52.792,93.075 53.167,93.167 53.167 C 93.258 53.167,93.333 53.459,93.333 53.816 C 93.333 54.247,93.420 54.497,93.591 54.563 C 93.788 54.639,93.823 54.802,93.739 55.250 C 93.646 55.747,93.670 55.822,93.898 55.734 C 94.110 55.653,94.167 55.741,94.167 56.149 C 94.167 56.434,94.242 56.667,94.333 56.667 C 94.425 56.667,94.500 56.846,94.500 57.066 C 94.500 57.285,94.612 57.508,94.750 57.560 C 94.888 57.613,95.000 57.771,95.000 57.911 C 95.000 58.052,95.075 58.167,95.167 58.167 C 95.258 58.167,95.333 58.306,95.333 58.476 C 95.333 58.646,95.520 58.986,95.748 59.232 C 95.976 59.478,96.145 59.733,96.123 59.799 C 96.101 59.865,96.630 60.464,97.298 61.131 C 97.966 61.798,98.473 62.408,98.425 62.487 C 98.377 62.565,98.467 62.619,98.627 62.606 C 98.786 62.594,98.898 62.677,98.875 62.792 C 98.851 62.914,99.006 63.000,99.250 63.000 C 99.479 63.000,99.667 63.066,99.667 63.147 C 99.667 63.228,99.824 63.336,100.017 63.386 C 100.209 63.436,100.322 63.551,100.267 63.640 C 100.209 63.734,100.306 63.766,100.498 63.716 C 100.708 63.661,100.867 63.727,100.932 63.898 C 100.989 64.046,101.178 64.167,101.351 64.167 C 101.525 64.167,101.667 64.242,101.667 64.333 C 101.667 64.425,101.900 64.500,102.184 64.500 C 102.576 64.500,102.679 64.561,102.606 64.750 C 102.531 64.946,102.652 65.000,103.172 65.000 C 103.536 65.000,103.833 65.075,103.833 65.167 C 103.833 65.258,104.171 65.333,104.583 65.333 C 104.996 65.333,105.333 65.408,105.333 65.500 C 105.333 65.594,105.806 65.667,106.417 65.667 C 107.269 65.667,107.500 65.720,107.500 65.917 C 107.500 66.131,108.019 66.167,111.167 66.167 C 114.315 66.167,114.833 66.131,114.833 65.917 C 114.833 65.718,115.074 65.667,116.000 65.667 C 116.667 65.667,117.167 65.595,117.167 65.500 C 117.167 65.408,117.579 65.333,118.083 65.333 C 118.587 65.333,119.000 65.258,119.000 65.167 C 119.000 65.075,119.335 65.000,119.745 65.000 C 120.338 65.000,120.470 64.949,120.394 64.750 C 120.320 64.557,120.431 64.500,120.881 64.500 C 121.551 64.500,121.667 64.316,121.667 63.246 C 121.667 62.408,121.634 62.376,120.651 62.255 C 120.247 62.205,120.010 62.209,120.125 62.263 C 120.547 62.462,120.315 62.667,119.667 62.667 C 119.300 62.667,119.000 62.742,119.000 62.833 C 119.000 62.925,118.625 63.000,118.167 63.000 C 117.518 63.000,117.333 63.058,117.333 63.263 C 117.333 63.488,117.175 63.510,116.248 63.410 C 115.288 63.308,115.174 63.325,115.266 63.564 C 115.359 63.808,114.983 63.833,111.333 63.833 C 107.704 63.833,107.308 63.807,107.400 63.567 C 107.490 63.333,107.378 63.315,106.502 63.416 C 105.669 63.513,105.485 63.488,105.400 63.266 C 105.328 63.078,105.082 63.000,104.566 63.000 C 104.163 63.000,103.833 62.925,103.833 62.833 C 103.833 62.742,103.646 62.667,103.417 62.667 C 103.149 62.667,103.000 62.573,103.000 62.405 C 103.000 62.220,102.903 62.175,102.666 62.250 C 102.444 62.321,102.298 62.269,102.231 62.095 C 102.176 61.951,101.989 61.833,101.816 61.833 C 101.642 61.833,101.500 61.758,101.500 61.667 C 101.500 61.575,101.350 61.500,101.167 61.500 C 100.796 61.500,100.718 61.249,101.042 61.096 C 101.156 61.042,101.044 61.037,100.792 61.086 C 100.518 61.138,100.333 61.100,100.333 60.991 C 100.333 60.795,99.924 60.333,99.750 60.333 C 99.611 60.333,99.167 59.889,99.167 59.750 C 99.167 59.572,98.704 59.167,98.501 59.167 C 98.387 59.167,98.353 59.033,98.417 58.833 C 98.492 58.597,98.447 58.500,98.261 58.500 C 98.118 58.500,98.000 58.387,98.000 58.250 C 98.000 58.112,97.925 58.000,97.833 58.000 C 97.742 58.000,97.667 57.887,97.667 57.750 C 97.667 57.612,97.554 57.500,97.417 57.500 C 97.278 57.500,97.167 57.352,97.167 57.167 C 97.167 56.983,97.092 56.833,97.000 56.833 C 96.908 56.833,96.833 56.646,96.833 56.417 C 96.833 56.188,96.758 56.000,96.667 56.000 C 96.575 56.000,96.500 55.775,96.500 55.500 C 96.500 55.167,96.417 55.000,96.250 55.000 C 96.075 55.000,96.000 54.824,96.000 54.417 C 96.000 54.096,95.925 53.833,95.833 53.833 C 95.742 53.833,95.667 53.533,95.667 53.167 C 95.667 52.800,95.592 52.500,95.500 52.500 C 95.408 52.500,95.333 52.125,95.333 51.667 C 95.333 51.037,95.272 50.833,95.083 50.833 C 94.876 50.833,94.833 50.519,94.833 49.000 C 94.833 47.889,94.768 47.167,94.667 47.167 C 94.562 47.167,94.500 46.080,94.500 44.240 C 94.500 42.332,94.558 41.349,94.667 41.417 C 94.774 41.483,94.833 40.829,94.833 39.575 C 94.833 37.916,94.870 37.645,95.083 37.727 C 95.281 37.803,95.333 37.677,95.333 37.126 C 95.333 36.487,95.311 36.451,95.067 36.695 C 94.257 37.505,94.143 50.191,94.935 51.452 C 95.062 51.655,95.167 52.124,95.167 52.494 C 95.167 52.864,95.242 53.167,95.333 53.167 C 95.425 53.167,95.500 53.429,95.500 53.750 C 95.500 54.071,95.575 54.333,95.667 54.333 C 95.758 54.333,95.833 54.488,95.833 54.677 C 95.833 55.093,97.156 57.833,97.357 57.833 C 97.436 57.833,97.501 57.927,97.502 58.042 C 97.507 58.504,100.135 61.278,101.000 61.733 C 101.229 61.854,101.829 62.158,102.333 62.410 C 102.837 62.661,103.380 62.935,103.539 63.017 C 103.699 63.099,103.965 63.167,104.131 63.167 C 104.297 63.167,104.508 63.241,104.599 63.332 C 105.664 64.398,117.163 64.404,118.228 63.339 C 118.322 63.244,118.643 63.167,118.940 63.167 C 119.237 63.167,119.522 63.100,119.572 63.018 C 119.622 62.937,119.908 62.832,120.207 62.786 C 120.506 62.739,120.919 62.647,121.125 62.581 C 121.557 62.443,121.710 63.846,121.292 64.114 C 121.036 64.278,119.763 64.657,119.083 64.772 C 118.808 64.818,118.433 64.921,118.250 65.001 C 117.841 65.179,117.059 65.298,115.000 65.497 C 114.129 65.582,113.041 65.737,112.582 65.842 C 111.677 66.050,110.817 66.005,107.750 65.589 C 104.673 65.172,104.504 65.142,104.406 64.982 C 104.355 64.900,104.112 64.831,103.865 64.828 C 103.618 64.825,103.271 64.713,103.093 64.578 C 102.915 64.443,102.634 64.333,102.468 64.333 C 102.302 64.333,102.167 64.258,102.167 64.167 C 102.167 64.075,102.035 63.995,101.875 63.988 C 101.715 63.981,101.358 63.835,101.083 63.664 C 100.808 63.492,100.382 63.243,100.135 63.110 C 99.616 62.831,98.486 61.943,97.854 61.318 C 97.016 60.489,95.833 58.944,95.833 58.678 C 95.833 58.580,95.767 58.500,95.686 58.500 C 95.605 58.500,95.497 58.369,95.447 58.208 C 95.396 58.048,95.190 57.617,94.989 57.250 C 94.416 56.207,94.333 56.021,94.333 55.771 C 94.333 55.643,94.221 55.323,94.084 55.061 C 93.947 54.798,93.835 54.457,93.834 54.302 C 93.834 54.146,93.758 53.973,93.667 53.917 C 93.575 53.860,93.500 53.560,93.500 53.250 C 93.500 52.940,93.434 52.646,93.354 52.596 C 93.274 52.547,93.174 52.085,93.131 51.571 C 93.088 51.057,92.985 50.587,92.902 50.526 C 92.818 50.466,92.730 49.742,92.706 48.917 C 92.682 48.092,92.582 47.004,92.485 46.500 C 92.220 45.128,92.590 38.995,93.003 37.907 C 93.093 37.671,93.167 37.188,93.167 36.832 C 93.167 36.477,93.242 36.140,93.333 36.083 C 93.425 36.027,93.500 35.685,93.500 35.323 C 93.500 34.962,93.575 34.667,93.667 34.667 C 93.758 34.667,93.834 34.535,93.834 34.375 C 93.835 34.215,93.947 33.869,94.084 33.606 C 94.221 33.343,94.333 33.035,94.333 32.921 C 94.333 32.747,94.807 31.783,95.739 30.061 C 96.444 28.759,98.764 26.442,100.140 25.667 C 100.384 25.529,100.621 25.378,100.667 25.332 C 100.712 25.285,101.050 25.098,101.417 24.915 C 101.783 24.733,102.108 24.527,102.139 24.458 C 102.169 24.390,102.334 24.333,102.504 24.333 C 102.674 24.333,102.860 24.258,102.917 24.167 C 102.973 24.075,103.188 24.000,103.395 24.000 C 103.601 24.000,103.915 23.890,104.093 23.755 C 104.271 23.621,104.618 23.508,104.865 23.505 C 105.112 23.502,105.360 23.425,105.417 23.333 C 105.473 23.242,105.919 23.167,106.406 23.167 C 106.991 23.167,107.363 23.082,107.500 22.917 C 107.673 22.708,107.651 22.667,107.367 22.667 C 107.180 22.667,106.908 22.621,106.762 22.565 C 106.567 22.490,106.524 22.535,106.599 22.731 M116.250 22.660 L 115.583 22.772 116.053 22.969 C 116.311 23.078,116.925 23.167,117.418 23.167 C 117.910 23.167,118.360 23.242,118.417 23.333 C 118.473 23.425,118.759 23.503,119.052 23.506 C 119.344 23.509,119.771 23.619,120.000 23.750 C 120.229 23.881,120.665 23.991,120.967 23.994 L 121.518 24.000 121.467 24.792 L 121.417 25.583 120.667 25.527 C 120.254 25.495,119.845 25.402,119.758 25.318 C 119.671 25.235,119.348 25.167,119.039 25.167 C 118.731 25.167,118.352 25.102,118.197 25.023 C 117.639 24.739,116.774 24.644,116.978 24.890 C 117.080 25.013,117.114 25.163,117.054 25.224 C 116.994 25.284,117.403 25.333,117.962 25.333 C 118.522 25.333,119.027 25.408,119.083 25.500 C 119.140 25.592,119.511 25.667,119.909 25.667 C 120.379 25.667,120.663 25.749,120.722 25.904 C 120.888 26.336,121.483 26.008,121.593 25.425 C 121.782 24.416,121.634 23.923,121.125 23.864 C 120.863 23.834,120.667 23.709,120.667 23.572 C 120.667 23.400,120.457 23.333,119.917 23.333 C 119.504 23.333,119.167 23.258,119.167 23.167 C 119.167 23.074,118.722 23.000,118.167 23.000 C 117.389 23.000,117.167 22.944,117.167 22.750 C 117.167 22.613,117.110 22.511,117.042 22.524 C 116.973 22.537,116.617 22.598,116.250 22.660 M129.294 22.618 C 129.501 22.658,129.801 22.656,129.960 22.615 C 130.120 22.573,129.950 22.540,129.583 22.542 C 129.217 22.544,129.086 22.578,129.294 22.618 M158.292 22.618 C 158.498 22.657,158.835 22.657,159.042 22.618 C 159.248 22.578,159.079 22.545,158.667 22.545 C 158.254 22.545,158.085 22.578,158.292 22.618 M21.005 23.873 C 21.015 25.442,20.428 25.333,28.893 25.333 L 36.333 25.333 36.353 45.375 C 36.364 56.398,36.364 65.473,36.353 65.542 C 36.342 65.610,36.858 65.667,37.500 65.667 L 38.667 65.667 38.667 45.458 L 38.667 25.250 46.229 25.297 C 53.712 25.343,53.793 25.339,53.881 25.004 C 53.940 24.777,54.057 24.699,54.235 24.767 C 54.458 24.853,54.500 24.721,54.500 23.939 L 54.500 23.009 37.750 23.002 L 21.000 22.995 21.005 23.873 M60.444 23.111 C 60.383 23.172,60.333 32.772,60.333 44.444 L 60.333 65.667 73.500 65.667 L 86.667 65.667 86.667 64.583 L 86.667 63.500 74.667 63.500 L 62.667 63.500 62.667 54.250 L 62.667 45.000 73.208 44.997 C 79.006 44.996,83.675 44.940,83.583 44.872 C 83.492 44.805,83.417 44.300,83.417 43.750 L 83.417 42.750 73.000 42.707 L 62.583 42.664 62.628 33.999 L 62.673 25.333 74.317 25.333 L 85.961 25.333 86.062 24.958 C 86.117 24.752,86.163 24.227,86.164 23.792 L 86.167 23.000 73.361 23.000 C 66.318 23.000,60.506 23.050,60.444 23.111 M128.451 23.104 C 128.387 23.169,128.333 32.772,128.333 44.444 L 128.333 65.667 129.397 65.667 C 130.778 65.667,130.662 66.658,130.664 54.857 C 130.666 45.753,130.692 44.807,130.930 44.899 C 131.075 44.954,137.075 45.000,144.262 45.000 L 157.331 45.000 157.374 55.292 L 157.417 65.583 158.542 65.633 L 159.667 65.682 159.667 44.333 L 159.667 22.985 158.542 23.034 L 157.417 23.083 157.417 32.875 L 157.417 42.667 144.043 42.667 L 130.669 42.667 130.626 32.875 L 130.583 23.083 129.576 23.035 C 129.023 23.008,128.516 23.039,128.451 23.104 M53.801 23.958 L 53.750 24.750 46.126 24.793 L 38.501 24.837 38.459 45.043 L 38.417 65.250 37.722 65.301 C 36.757 65.371,36.815 66.737,36.906 46.229 C 36.952 36.066,36.943 27.094,36.887 26.292 L 36.786 24.833 29.351 24.831 C 25.262 24.830,21.748 24.784,21.542 24.728 C 21.170 24.629,20.979 23.577,21.278 23.278 C 21.339 23.217,28.693 23.167,37.620 23.167 L 53.852 23.167 53.801 23.958 M85.967 23.958 L 85.917 24.750 74.083 24.833 L 62.250 24.917 62.250 33.833 L 62.250 42.750 72.750 42.833 L 83.250 42.917 83.301 43.625 L 83.352 44.333 73.082 44.333 C 66.321 44.333,62.701 44.392,62.489 44.506 C 62.208 44.657,61.933 63.282,62.208 63.539 C 62.231 63.560,67.688 63.617,74.333 63.664 L 86.417 63.750 86.468 64.453 C 86.537 65.407,87.467 65.348,73.167 65.296 L 60.583 65.250 60.540 44.417 C 60.517 32.958,60.533 23.490,60.577 23.375 C 60.639 23.211,63.346 23.167,73.337 23.167 L 86.018 23.167 85.967 23.958 M130.460 33.042 L 130.503 42.833 143.960 42.831 C 151.361 42.829,157.510 42.769,157.624 42.697 C 157.784 42.595,157.840 40.380,157.874 32.908 L 157.917 23.250 158.708 23.199 L 159.500 23.148 159.500 44.250 L 159.500 65.352 158.708 65.301 L 157.917 65.250 157.833 54.952 C 157.761 46.042,157.716 44.633,157.500 44.496 C 157.195 44.304,131.012 44.278,130.710 44.470 C 130.549 44.572,130.493 46.920,130.460 54.926 L 130.417 65.250 129.667 65.250 L 128.917 65.250 128.874 44.417 C 128.826 21.165,128.749 23.129,129.707 23.199 L 130.417 23.250 130.460 33.042 M107.667 24.583 C 107.275 24.807,107.271 24.822,107.604 24.827 C 107.799 24.831,108.193 24.880,108.479 24.938 C 108.892 25.020,109.000 24.985,109.000 24.771 C 109.000 24.532,109.310 24.500,111.583 24.500 C 113.706 24.500,114.167 24.542,114.167 24.737 C 114.167 24.952,115.925 24.964,116.138 24.751 C 116.582 24.307,108.432 24.146,107.667 24.583 M106.000 24.860 C 105.679 24.947,105.229 25.058,105.000 25.105 C 103.189 25.481,99.842 27.561,98.562 29.105 C 98.207 29.533,97.823 29.979,97.708 30.096 C 97.594 30.213,97.500 30.357,97.500 30.416 C 97.500 30.474,97.313 30.768,97.083 31.069 C 96.854 31.369,96.667 31.739,96.667 31.891 C 96.667 32.042,96.592 32.167,96.500 32.167 C 96.408 32.167,96.333 32.273,96.333 32.403 C 96.333 32.533,96.208 32.889,96.055 33.195 C 95.902 33.500,95.715 33.880,95.638 34.039 C 95.562 34.199,95.500 34.550,95.500 34.821 C 95.500 35.092,95.425 35.360,95.333 35.417 C 95.242 35.473,95.167 35.708,95.167 35.938 C 95.167 36.311,95.194 36.329,95.417 36.107 C 95.554 35.970,95.667 35.589,95.667 35.262 C 95.667 34.935,95.742 34.667,95.833 34.667 C 95.925 34.667,96.000 34.404,96.000 34.083 C 96.000 33.676,96.075 33.500,96.250 33.500 C 96.406 33.500,96.500 33.343,96.500 33.083 C 96.500 32.854,96.575 32.667,96.667 32.667 C 96.758 32.667,96.833 32.479,96.833 32.250 C 96.833 32.021,96.908 31.833,97.000 31.833 C 97.092 31.833,97.167 31.683,97.167 31.500 C 97.167 31.315,97.278 31.167,97.417 31.167 C 97.556 31.167,97.667 31.019,97.667 30.833 C 97.667 30.650,97.742 30.500,97.833 30.500 C 97.925 30.500,98.000 30.422,98.000 30.326 C 98.000 30.230,98.412 29.736,98.917 29.228 C 99.421 28.720,99.833 28.236,99.833 28.152 C 99.833 28.068,99.946 28.000,100.083 28.000 C 100.221 28.000,100.333 27.925,100.333 27.833 C 100.333 27.742,100.488 27.667,100.677 27.667 C 100.865 27.667,100.973 27.592,100.917 27.500 C 100.860 27.408,100.968 27.333,101.157 27.333 C 101.351 27.333,101.500 27.225,101.500 27.083 C 101.500 26.944,101.648 26.833,101.833 26.833 C 102.017 26.833,102.167 26.758,102.167 26.667 C 102.167 26.575,102.354 26.500,102.583 26.500 C 102.828 26.500,102.983 26.414,102.958 26.292 C 102.934 26.172,103.088 26.082,103.321 26.080 C 103.543 26.078,103.755 25.984,103.793 25.871 C 103.830 25.759,104.080 25.667,104.347 25.667 C 104.615 25.667,104.833 25.592,104.833 25.500 C 104.833 25.408,105.213 25.333,105.677 25.333 C 106.159 25.333,106.478 25.266,106.423 25.177 C 106.370 25.091,106.459 24.943,106.621 24.849 C 106.976 24.642,106.786 24.646,106.000 24.860 M111.127 24.951 C 111.334 24.991,111.634 24.990,111.794 24.948 C 111.953 24.906,111.783 24.874,111.417 24.875 C 111.050 24.877,110.920 24.911,111.127 24.951 M11.079 62.083 C 11.079 69.508,11.100 72.570,11.125 68.887 C 11.150 65.205,11.150 59.130,11.125 55.387 C 11.100 51.645,11.079 54.658,11.079 62.083 " stroke="none" fill="#51d388" fill-rule="evenodd"></path></g></svg>